<?xml version="1.0" encoding="utf-8"?>
<!-- Generator: Adobe Illustrator 26.5.0, SVG Export Plug-In . SVG Version: 6.00 Build 0)  -->
<svg version="1.1" id="Layer_1" xmlns="http://www.w3.org/2000/svg" xmlns:xlink="http://www.w3.org/1999/xlink" x="0px" y="0px"
	 viewBox="0 0 174 26" style="enable-background:new 0 0 174 26;" xml:space="preserve">
<style type="text/css">
	.st0{fill:#615DFF;}
	.st1{fill:#3DD9EB;}
	.st2{fill:none;}
	.st3{fill:#061570;}
</style>
<path class="st0" d="M20.1,26c2.8,0,5-2.3,4.5-5c-0.3-1.7-0.8-3.4-1.4-5c-1.3-3.2-3.1-6-5.4-8.4C15.4,5.2,12.7,3.3,9.6,2
	C8.1,1.3,6.6,0.8,5,0.5C2.3-0.1,0,2.2,0,5v16c0,2.8,2.2,5,5,5H20.1z"/>
<g>
	<path class="st1" d="M13.7,26c-2.8,0-5-2.3-4.5-5c0.3-1.7,0.8-3.4,1.4-5c1.3-3.2,3.1-6,5.4-8.4s5.1-4.3,8.2-5.6
		c1.5-0.6,3.1-1.1,4.7-1.5c2.7-0.6,5,1.7,5,4.5v16c0,2.8-2.2,5-5,5H13.7z"/>
</g>
<g>
	<rect x="43.6" y="5.7" class="st2" width="124.8" height="19.6"/>
	<path class="st3" d="M44.4,16.2l4.6-0.3c0.1,0.8,0.3,1.3,0.6,1.7c0.5,0.6,1.2,1,2.1,1c0.7,0,1.2-0.2,1.6-0.5
		c0.4-0.3,0.6-0.7,0.6-1.1s-0.2-0.8-0.5-1.1c-0.4-0.3-1.2-0.6-2.5-0.9c-2.1-0.5-3.7-1.1-4.6-1.9c-0.9-0.8-1.4-1.8-1.4-3
		c0-0.8,0.2-1.6,0.7-2.3C46.2,7,46.9,6.5,47.8,6c0.9-0.4,2.2-0.6,3.9-0.6c2,0,3.5,0.4,4.6,1.1s1.7,1.9,1.9,3.6l-4.6,0.3
		c-0.1-0.7-0.4-1.2-0.8-1.5c-0.4-0.3-0.9-0.5-1.6-0.5c-0.6,0-1,0.1-1.3,0.4c-0.3,0.2-0.4,0.5-0.4,0.9c0,0.3,0.1,0.5,0.4,0.7
		c0.2,0.2,0.8,0.4,1.6,0.6c2.1,0.5,3.7,0.9,4.6,1.4c0.9,0.5,1.6,1.1,2,1.7s0.6,1.5,0.6,2.3c0,1-0.3,1.9-0.8,2.8s-1.3,1.5-2.3,1.9
		s-2.3,0.7-3.8,0.7c-2.7,0-4.5-0.5-5.6-1.5S44.5,17.8,44.4,16.2z"/>
	<path class="st3" d="M61.3,5.7h4.9v15.7h-4.9C61.3,21.4,61.3,5.7,61.3,5.7z"/>
	<path class="st3" d="M79.4,18.8h-5.5l-0.8,2.6h-5L74,5.7h5.3l5.9,15.7h-5.1L79.4,18.8z M78.4,15.4l-1.7-5.7L75,15.4H78.4z"/>
	<path class="st3" d="M86.8,5.7h4.9v6l5.1-6h6.5l-5.7,5.9l6,9.8h-6L94.2,15l-2.5,2.6v3.8h-4.9C86.8,21.4,86.8,5.7,86.8,5.7z"/>
	<path class="st3" d="M115.4,5.7h4.9v9.4c0,0.9-0.1,1.8-0.4,2.6s-0.7,1.5-1.4,2.2c-0.6,0.6-1.3,1.1-2,1.3c-0.9,0.4-2.1,0.5-3.4,0.5
		c-0.8,0-1.6-0.1-2.5-0.2s-1.7-0.3-2.3-0.6s-1.2-0.8-1.7-1.4s-0.8-1.2-1-1.8c-0.3-1-0.5-1.9-0.5-2.7V5.7h4.9v9.6
		c0,0.9,0.2,1.5,0.7,2s1.1,0.7,2,0.7c0.8,0,1.5-0.2,2-0.7s0.7-1.2,0.7-2C115.4,15.3,115.4,5.7,115.4,5.7z"/>
	<path class="st3" d="M132.4,18.8h-5.5l-0.8,2.6h-5L127,5.7h5.3l5.9,15.7h-5.1L132.4,18.8z M131.4,15.4l-1.7-5.7l-1.7,5.7H131.4z"/>
	<path class="st3" d="M151.5,5.7v15.7h-4.1v-1.7c-0.6,0.7-1.1,1.2-1.6,1.5c-0.6,0.3-1.3,0.5-2.1,0.5c-1.6,0-2.7-0.6-3.6-1.8
		c-0.8-1.2-1.2-2.6-1.2-4.3c0-1.9,0.5-3.3,1.4-4.3s2.1-1.5,3.5-1.5c0.7,0,1.3,0.1,1.9,0.3c0.6,0.2,1,0.6,1.5,1V5.7H151.5z
		 M147.2,15.7c0-0.9-0.2-1.6-0.6-2c-0.4-0.4-0.9-0.7-1.4-0.7s-0.9,0.2-1.3,0.6s-0.5,1.1-0.5,2.1c0,0.9,0.2,1.6,0.5,2
		c0.4,0.4,0.8,0.7,1.3,0.7c0.6,0,1-0.2,1.4-0.7S147.2,16.7,147.2,15.7z"/>
	<path class="st3" d="M158.2,13.7l-4.2-0.4c0.2-0.7,0.4-1.3,0.7-1.7s0.7-0.8,1.3-1.1c0.4-0.2,1-0.4,1.7-0.5s1.5-0.2,2.3-0.2
		c1.3,0,2.4,0.1,3.2,0.2c0.8,0.1,1.5,0.5,2,0.9c0.4,0.3,0.7,0.8,0.9,1.4c0.2,0.6,0.3,1.2,0.3,1.7v5c0,0.5,0,1,0.1,1.3
		s0.2,0.7,0.4,1.2h-4.1c-0.2-0.3-0.3-0.5-0.3-0.7s-0.1-0.4-0.2-0.7c-0.6,0.6-1.1,0.9-1.7,1.2c-0.8,0.3-1.7,0.5-2.7,0.5
		c-1.4,0-2.4-0.3-3.1-0.9c-0.7-0.6-1.1-1.4-1.1-2.3s0.3-1.6,0.8-2.1s1.4-1,2.8-1.2c1.6-0.3,2.7-0.6,3.2-0.7c0.5-0.1,1-0.3,1.5-0.5
		c0-0.5-0.1-0.9-0.3-1.1s-0.6-0.3-1.2-0.3c-0.7,0-1.3,0.1-1.6,0.3C158.6,12.9,158.4,13.2,158.2,13.7z M162,16
		c-0.6,0.2-1.2,0.4-1.9,0.6c-0.9,0.2-1.5,0.5-1.7,0.7s-0.4,0.5-0.4,0.8s0.1,0.6,0.4,0.8c0.2,0.2,0.6,0.3,1.1,0.3s0.9-0.1,1.4-0.4
		c0.4-0.2,0.7-0.5,0.9-0.9c0.2-0.3,0.3-0.8,0.3-1.3V16H162z"/>
</g>
</svg>
