<?xml version="1.0" encoding="utf-8"?>
<!-- Generator: Adobe Illustrator 26.5.0, SVG Export Plug-In . SVG Version: 6.00 Build 0)  -->
<svg version="1.1" id="Layer_1" xmlns="http://www.w3.org/2000/svg" xmlns:xlink="http://www.w3.org/1999/xlink" x="0px" y="0px"
	 viewBox="0 0 450 450" style="enable-background:new 0 0 450 450;" xml:space="preserve">
<style type="text/css">
	.st0{fill:#E6CB47;}
	.st1{fill:#204F79;}
	.st2{fill:#B3B3B3;}
	.st3{display:none;}
	.st4{display:inline;fill:#204F79;}
	.st5{display:inline;}
	.st6{fill:#666666;}
</style>
<g>
	<path class="st0" d="M112.6,131.4c0-10.3,8.3-18.6,18.6-18.6C131.2,123.1,122.8,131.4,112.6,131.4z"/>
	<path class="st0" d="M165.6,409.5c-6.8,0-12.4-5.5-12.4-12.4C160,397.2,165.6,402.7,165.6,409.5z"/>
	<path class="st1" d="M132.5,114c9,0,16.3,7.3,16.3,16.3C139.8,130.3,132.5,123,132.5,114z"/>
	<path class="st2" d="M147.5,353.9c-7.6,0-13.7-6.1-13.7-13.7C141.3,340.3,147.5,346.4,147.5,353.9z"/>
	<path class="st1" d="M408.3,323.2c0,5.7-4.6,10.3-10.3,10.3C398,327.8,402.6,323.2,408.3,323.2z"/>
	<path class="st1" d="M394.5,338.5c9.5,0,17.3,7.7,17.3,17.2C402.2,355.7,394.5,348,394.5,338.5z"/>
	<path class="st2" d="M340.4,284.4c7.1,0,12.9,5.8,12.9,12.9C346.2,297.3,340.4,291.5,340.4,284.4z"/>
	<path class="st2" d="M75.8,130.8c0-9.5,7.7-17.2,17.3-17.2C93,123,85.3,130.8,75.8,130.8z"/>
	<path class="st1" d="M71.3,352.7c-6.2,0-11.3-5-11.3-11.2C66.2,341.5,71.3,346.5,71.3,352.7z"/>
	<path class="st0" d="M95.9,448.1c0-8,6.5-14.4,14.4-14.4C110.3,441.6,103.9,448.1,95.9,448.1z"/>
	<path class="st0" d="M22.7,296.3c0-6,4.9-10.9,10.9-10.9C33.6,291.4,28.7,296.3,22.7,296.3z"/>
	<path class="st1" d="M241.8,414.7c0,8.2-6.6,14.8-14.8,14.8C227,421.3,233.6,414.7,241.8,414.7z"/>
	<path class="st1" d="M263.2,280.8c0-9.6,7.8-17.4,17.4-17.4C280.6,273,272.8,280.8,263.2,280.8z"/>
	<path class="st2" d="M336.2,395.3c0,8.9-7.2,16.1-16.1,16.1C320.1,402.5,327.3,395.3,336.2,395.3z"/>
	<path class="st1" d="M302.4,391.5c0-7.7,6.2-13.9,13.9-13.9C316.3,385.3,310.1,391.5,302.4,391.5z"/>
	<path class="st0" d="M151.1,130.4c0-9.1,7.4-16.5,16.5-16.5C167.6,123,160.2,130.4,151.1,130.4z"/>
	<path class="st0" d="M240.9,372.4c-7.2,0-13.1-5.9-13.1-13.1C235.1,359.3,240.9,365.2,240.9,372.4z"/>
	<path class="st2" d="M20.3,111.1c0-8.6,7-15.6,15.6-15.6C35.9,104.1,28.9,111.1,20.3,111.1z"/>
	<path class="st1" d="M129.9,339c0,8.9-7.2,16.1-16.1,16.1C113.8,346.3,121,339,129.9,339z"/>
	<path class="st1" d="M145.6,239.6c-5.5,0-9.9-4.4-9.9-9.9C141.1,229.6,145.6,234.1,145.6,239.6z"/>
	<path class="st2" d="M131.1,262.6c-10.1,0-18.4-8.2-18.4-18.4C122.8,244.2,131.1,252.4,131.1,262.6z"/>
	<path class="st1" d="M434.2,265.6c7.1,0,12.9,5.8,12.9,12.9C440,278.6,434.2,272.8,434.2,265.6z"/>
	<path class="st2" d="M417.2,286.2c5.2,0,9.4,4.2,9.4,9.4C421.4,295.5,417.2,291.4,417.2,286.2z"/>
	<path class="st1" d="M133.2,335.8c0-8.2,6.6-14.8,14.8-14.8C148,329.1,141.4,335.8,133.2,335.8z"/>
	<path class="st2" d="M128.5,303c0,7.4-6,13.3-13.3,13.3C115.2,308.9,121.2,303,128.5,303z"/>
	<path class="st0" d="M129.8,336.3c-8.8,0-15.9-7.1-15.9-15.9C122.7,320.4,129.8,327.5,129.8,336.3z"/>
	<path class="st2" d="M128.3,190.7c0,7-5.7,12.7-12.8,12.7C115.5,196.5,121.2,190.7,128.3,190.7z"/>
	<path class="st1" d="M220.8,427.3c-5.7,0-10.3-4.6-10.3-10.3C216.2,416.9,220.8,421.6,220.8,427.3z"/>
	<path class="st1" d="M222.9,433.6c0,8-6.5,14.4-14.4,14.4C208.4,440.1,214.9,433.6,222.9,433.6z"/>
	<path class="st1" d="M89.9,333.9c-6.1,0-11.1-5-11.1-11.1C85,322.8,89.9,327.8,89.9,333.9z"/>
	<path class="st2" d="M111.3,317.8c-9,0-16.3-7.3-16.3-16.3C104,301.5,111.3,308.8,111.3,317.8z"/>
	<path class="st1" d="M187.3,393.8c-10.1,0-18.4-8.2-18.4-18.4C179.1,375.4,187.3,383.6,187.3,393.8z"/>
	<path class="st1" d="M40.3,128.7c0-7.2,5.9-13.1,13.1-13.1C53.4,122.8,47.6,128.7,40.3,128.7z"/>
	<path class="st0" d="M58.8,115.3c7.6,0,13.7,6.1,13.7,13.7C64.9,129,58.8,122.8,58.8,115.3z"/>
	<path class="st1" d="M135.5,408.5c0-5.7,4.6-10.3,10.3-10.3C145.8,403.9,141.2,408.5,135.5,408.5z"/>
	<path class="st2" d="M202.4,371.4c-6.1,0-11.1-5-11.1-11.1C197.5,360.3,202.4,365.3,202.4,371.4z"/>
	<path class="st0" d="M448,246c0,8.2-6.6,14.8-14.8,14.8C433.2,252.6,439.9,246,448,246z"/>
	<path class="st1" d="M431.3,225.2c10.4,0,18.8,8.4,18.8,18.7C439.7,244,431.3,235.6,431.3,225.2z"/>
	<path class="st1" d="M172.5,296.5c0-6.2,5-11.2,11.3-11.2C183.8,291.4,178.7,296.5,172.5,296.5z"/>
	<path class="st2" d="M201.9,304.5c0,5.6-4.5,10.1-10.1,10.1C191.8,309.1,196.4,304.5,201.9,304.5z"/>
	<path class="st1" d="M302,358.4c8.2,0,14.8,6.6,14.8,14.8C308.6,373.3,302,366.6,302,358.4z"/>
	<path class="st1" d="M112.3,431.3c-10.1,0-18.4-8.2-18.4-18.4C104.1,412.9,112.3,421.1,112.3,431.3z"/>
	<path class="st0" d="M129.2,410.7c-8.1,0-14.6-6.5-14.6-14.6C122.6,396,129.2,402.6,129.2,410.7z"/>
	<path class="st1" d="M17.9,336.9c-9.4,0-17.1-7.6-17.1-17.1C10.3,319.8,17.9,327.5,17.9,336.9z"/>
	<path class="st0" d="M89.6,341.9c0,5.8-4.7,10.5-10.5,10.5C79.1,346.6,83.8,341.9,89.6,341.9z"/>
	<path class="st1" d="M111.2,355.2c-8.9,0-16.1-7.2-16.1-16.1C104,339,111.2,346.3,111.2,355.2z"/>
	<path class="st1" d="M108.5,89.9c-5.9,0-10.7-4.8-10.7-10.7C103.7,79.2,108.5,84,108.5,89.9z"/>
	<path class="st0" d="M204.4,298.4c-8.3,0-15-6.7-15-15C197.7,283.4,204.4,290.1,204.4,298.4z"/>
	<path class="st1" d="M146.5,428c-6.5,0-11.8-5.3-11.8-11.8C141.2,416.2,146.5,421.5,146.5,428z"/>
	<path class="st1" d="M133.1,448.3c0-8.3,6.7-15,15-15C148.1,441.6,141.4,448.3,133.1,448.3z"/>
	<path class="st2" d="M130.1,413.8c0,9.1-7.4,16.5-16.5,16.5C113.6,421.2,121,413.8,130.1,413.8z"/>
	<path class="st1" d="M90.3,41.2C90.3,47.7,85,53,78.5,53C78.5,46.5,83.8,41.2,90.3,41.2z"/>
	<path class="st1" d="M90.7,447.1c-6.9,0-12.6-5.6-12.6-12.6C85,434.6,90.7,440.2,90.7,447.1z"/>
	<path class="st1" d="M285.1,266.6c6.1,0,11.1,5,11.1,11.1C290.1,277.6,285.1,272.7,285.1,266.6z"/>
	<path class="st0" d="M285.3,258.7c0-5.9,4.8-10.7,10.7-10.7C296,253.9,291.2,258.7,285.3,258.7z"/>
	<path class="st2" d="M229.7,398.7c5.2,0,9.4,4.2,9.4,9.4C233.9,408,229.7,403.8,229.7,398.7z"/>
	<path class="st1" d="M223,317c-8.2,0-14.8-6.6-14.8-14.8C216.4,302.2,223,308.8,223,317z"/>
	<path class="st0" d="M89.5,304.5c0,5.7-4.6,10.3-10.3,10.3C79.2,309.1,83.8,304.5,89.5,304.5z"/>
	<path class="st1" d="M248.4,183.1c0-5.2,4.2-9.4,9.4-9.4C257.8,178.9,253.6,183.1,248.4,183.1z"/>
	<path class="st2" d="M168.8,337.7c-10.4,0-18.8-8.4-18.8-18.7C160.4,319,168.8,327.4,168.8,337.7z"/>
	<path class="st1" d="M164.3,304.6c0,5.5-4.4,9.9-9.9,9.9C154.4,309.1,158.9,304.6,164.3,304.6z"/>
	<path class="st2" d="M185.6,317.1c-8.3,0-15-6.7-15-15C178.9,302.1,185.6,308.8,185.6,317.1z"/>
	<path class="st1" d="M322.7,341.7c6,0,10.9,4.9,10.9,10.9C327.6,352.5,322.7,347.7,322.7,341.7z"/>
	<path class="st1" d="M300.9,318c0-9.3,7.6-16.9,16.9-16.9C317.8,310.5,310.3,318,300.9,318z"/>
	<path class="st2" d="M339.5,242c0-8.2,6.6-14.8,14.8-14.8C354.3,235.4,347.7,242,339.5,242z"/>
	<path class="st1" d="M398.5,379.9c5.2,0,9.4,4.2,9.4,9.4C402.6,389.3,398.5,385.1,398.5,379.9z"/>
	<path class="st0" d="M260.3,396.2c0,7.9-6.4,14.2-14.3,14.2C246,402.6,252.4,396.2,260.3,396.2z"/>
	<path class="st2" d="M14.3,417.2c0,5.4-4.4,9.7-9.8,9.7C4.5,421.6,8.9,417.2,14.3,417.2z"/>
	<path class="st0" d="M209.8,259.2c0-6.4,5.2-11.6,11.6-11.6C221.4,254,216.2,259.2,209.8,259.2z"/>
	<path class="st1" d="M296.6,359.9c0,6.6-5.4,12-12,12C284.6,365.2,290,359.9,296.6,359.9z"/>
	<path class="st1" d="M111.5,205.5c-9.2,0-16.7-7.5-16.7-16.7C104,188.8,111.5,196.2,111.5,205.5z"/>
	<path class="st1" d="M341.1,397.5c6.4,0,11.6,5.2,11.6,11.6C346.3,409.2,341.1,404,341.1,397.5z"/>
	<path class="st1" d="M91.3,372.8c-7.7,0-13.9-6.2-13.9-13.9C85.1,358.9,91.3,365.1,91.3,372.8z"/>
	<path class="st1" d="M93,376c0,9.5-7.7,17.2-17.3,17.2C75.8,383.7,83.5,376,93,376z"/>
	<path class="st1" d="M168.1,338.4c0,9.6-7.8,17.4-17.4,17.4C150.7,346.2,158.5,338.4,168.1,338.4z"/>
	<path class="st1" d="M171.4,372.6c0-7.5,6-13.5,13.5-13.5C184.9,366.6,178.8,372.6,171.4,372.6z"/>
	<path class="st2" d="M59,335c0-7.4,6-13.3,13.3-13.3C72.3,329.1,66.3,335,59,335z"/>
	<path class="st1" d="M52.4,304.1c0,6.1-5,11.1-11.1,11.1C41.3,309,46.3,304.1,52.4,304.1z"/>
	<path class="st0" d="M74.9,318.9c-10.3,0-18.6-8.3-18.6-18.6C66.6,300.3,74.9,308.6,74.9,318.9z"/>
	<path class="st2" d="M258.2,435.8c0,5.6-4.5,10.1-10.1,10.1C248.1,440.3,252.6,435.8,258.2,435.8z"/>
	<path class="st0" d="M377.7,396.7c7.4,0,13.3,6,13.3,13.3C383.7,410,377.7,404,377.7,396.7z"/>
	<path class="st1" d="M372.2,396.8c0,7.2-5.9,13.1-13.1,13.1C359.1,402.7,365,396.8,372.2,396.8z"/>
	<path class="st1" d="M239.2,342.3c0,5.3-4.3,9.6-9.6,9.6C229.6,346.6,233.9,342.3,239.2,342.3z"/>
	<path class="st1" d="M206.7,337.3c0-9.8,8-17.8,17.8-17.8C224.5,329.3,216.6,337.3,206.7,337.3z"/>
	<path class="st2" d="M224.5,356c-9.8,0-17.8-8-17.8-17.8C216.6,338.2,224.5,346.2,224.5,356z"/>
	<path class="st1" d="M303.8,397.7c6.2,0,11.3,5,11.3,11.2C308.8,409,303.8,403.9,303.8,397.7z"/>
	<path class="st0" d="M375,319c10.4,0,18.8,8.4,18.8,18.7C383.4,337.7,375,329.3,375,319z"/>
	<path class="st1" d="M370.9,323.1c0,5.8-4.7,10.5-10.5,10.5C360.4,327.8,365.1,323.1,370.9,323.1z"/>
	<path class="st0" d="M300.9,243.1c0-9.3,7.6-16.9,16.9-16.9C317.8,235.5,310.3,243.1,300.9,243.1z"/>
	<path class="st0" d="M285.1,229.1c6.1,0,11.1,5,11.1,11.1C290.1,240.1,285.1,235.2,285.1,229.1z"/>
	<path class="st1" d="M360.9,267.3c5.3,0,9.6,4.3,9.6,9.6C365.1,276.9,360.9,272.6,360.9,267.3z"/>
	<path class="st2" d="M371.2,247.8c0,6.1-5,11.1-11.1,11.1C360.1,252.8,365.1,247.8,371.2,247.8z"/>
	<path class="st1" d="M133.8,147.7c0-7.6,6.1-13.7,13.7-13.7C147.5,141.6,141.3,147.7,133.8,147.7z"/>
	<path class="st2" d="M167.3,148.8c-8.7,0-15.8-7.1-15.8-15.7C160.2,133,167.3,140.1,167.3,148.8z"/>
	<path class="st1" d="M91.4,190.1c0,7.8-6.3,14.1-14.1,14.1C77.3,196.4,83.6,190.1,91.4,190.1z"/>
	<path class="st0" d="M22.8,333.7c0-5.9,4.8-10.7,10.7-10.7C33.5,328.9,28.7,333.7,22.8,333.7z"/>
	<path class="st0" d="M53,341c0,6.7-5.5,12.2-12.2,12.2C40.8,346.5,46.2,341,53,341z"/>
	<path class="st1" d="M56.2,337.6c-10.3,0-18.6-8.3-18.6-18.6C47.8,319.1,56.2,327.4,56.2,337.6z"/>
	<path class="st0" d="M173.4,220.6c0-5.2,4.2-9.4,9.4-9.4C182.8,216.4,178.6,220.6,173.4,220.6z"/>
	<path class="st0" d="M56.4,450c0-10.1,8.2-18.4,18.4-18.4C74.8,441.8,66.6,450,56.4,450z"/>
	<path class="st0" d="M130,264c0,9-7.3,16.3-16.3,16.3C113.7,271.3,121,264,130,264z"/>
	<path class="st1" d="M283.9,302.9c7.5,0,13.5,6,13.5,13.5C289.9,316.4,283.9,310.3,283.9,302.9z"/>
	<path class="st2" d="M36.3,92.7c-9,0-16.3-7.3-16.3-16.3C29,76.4,36.3,83.7,36.3,92.7z"/>
	<path class="st1" d="M20,74c0-9,7.3-16.3,16.3-16.3C36.3,66.7,29,74,20,74z"/>
	<path class="st2" d="M128.8,147.8c-7.7,0-13.9-6.2-13.9-13.9C122.6,133.9,128.8,140.2,128.8,147.8z"/>
	<path class="st0" d="M18.3,37.2c-9.8,0-17.8-8-17.8-17.8C10.3,19.4,18.3,27.4,18.3,37.2z"/>
	<path class="st1" d="M96,260.5c0-7.9,6.4-14.2,14.3-14.2C110.3,254.1,103.9,260.5,96,260.5z"/>
	<path class="st2" d="M92.7,261.7c-9.2,0-16.7-7.5-16.7-16.7C85.3,245,92.7,252.5,92.7,261.7z"/>
	<path class="st1" d="M89.8,229.2c0,6-4.9,10.9-10.9,10.9C78.9,234,83.8,229.2,89.8,229.2z"/>
	<path class="st0" d="M300,319c10.4,0,18.8,8.4,18.8,18.7C308.4,337.7,300,329.3,300,319z"/>
	<path class="st1" d="M300,356.5c0-10.4,8.4-18.7,18.8-18.7C318.8,348.1,310.4,356.5,300,356.5z"/>
	<path class="st1" d="M285.4,341.9c5.8,0,10.5,4.7,10.5,10.5C290.1,352.4,285.4,347.7,285.4,341.9z"/>
	<path class="st1" d="M297.2,321.8c0,7.2-5.9,13.1-13.1,13.1C284.1,327.7,289.9,321.8,297.2,321.8z"/>
	<path class="st1" d="M203.1,334.5c-6.8,0-12.4-5.5-12.4-12.4C197.5,322.2,203.1,327.7,203.1,334.5z"/>
	<path class="st1" d="M169.3,337.2c0-9.7,7.9-17.6,17.6-17.6C186.9,329.3,179.1,337.2,169.3,337.2z"/>
	<path class="st1" d="M186.6,355.5c-9.3,0-16.9-7.6-16.9-16.9C179,338.7,186.6,346.2,186.6,355.5z"/>
	<path class="st1" d="M434.5,340.9c6.8,0,12.4,5.5,12.4,12.4C440,353.3,434.5,347.8,434.5,340.9z"/>
	<path class="st0" d="M111.9,94.5c0,9.7-7.9,17.6-17.6,17.6C94.3,102.4,102.2,94.5,111.9,94.5z"/>
	<path class="st2" d="M51.9,229.6c0,5.6-4.5,10.1-10.1,10.1C41.8,234.1,46.3,229.6,51.9,229.6z"/>
	<path class="st1" d="M59.8,259.2c0-6.4,5.2-11.6,11.6-11.6C71.4,254,66.2,259.2,59.8,259.2z"/>
	<path class="st0" d="M72,241c-7,0-12.8-5.7-12.8-12.7C66.3,228.2,72,234,72,241z"/>
	<path class="st1" d="M339.9,354.1c0-7.8,6.3-14.1,14.1-14.1C353.9,347.8,347.6,354.1,339.9,354.1z"/>
	<path class="st0" d="M377.8,359.3c7.2,0,13.1,5.9,13.1,13.1C383.7,372.4,377.8,366.5,377.8,359.3z"/>
	<path class="st1" d="M376.5,392.5c0-8.7,7.1-15.7,15.8-15.7C392.3,385.4,385.2,392.5,376.5,392.5z"/>
	<path class="st1" d="M360.7,379.6c5.5,0,9.9,4.4,9.9,9.9C365.1,389.6,360.7,385.1,360.7,379.6z"/>
	<path class="st0" d="M374.7,356.8c0,10-8.1,18.2-18.2,18.2C356.5,364.9,364.7,356.8,374.7,356.8z"/>
	<path class="st1" d="M449.5,431.9c0,9.8-8,17.8-17.8,17.8C431.7,439.9,439.7,431.9,449.5,431.9z"/>
	<path class="st0" d="M416.5,435.4c6,0,10.9,4.9,10.9,10.9C421.3,446.3,416.5,441.4,416.5,435.4z"/>
	<path class="st0" d="M74.2,55.6c-9.4,0-17.1-7.6-17.1-17.1C66.5,38.6,74.2,46.2,74.2,55.6z"/>
	<path class="st2" d="M53,71.9c-6.7,0-12.2-5.5-12.2-12.2C47.5,59.7,53,65.2,53,71.9z"/>
	<path class="st2" d="M15.4,116.1c0,6.6-5.4,12-12,12C3.4,121.5,8.7,116.1,15.4,116.1z"/>
	<path class="st0" d="M18.2,374.7c-9.7,0-17.6-7.9-17.6-17.6C10.3,357,18.2,364.9,18.2,374.7z"/>
	<path class="st0" d="M14.4,342c0,5.6-4.5,10.1-10.1,10.1C4.3,346.6,8.8,342,14.4,342z"/>
	<path class="st1" d="M37.4,356.4c-10.3,0-18.6-8.3-18.6-18.6C29.1,337.8,37.4,346.1,37.4,356.4z"/>
	<path class="st2" d="M170.3,261.1c0-8.6,7-15.6,15.6-15.6C185.9,254.2,178.9,261.1,170.3,261.1z"/>
	<path class="st0" d="M202.2,258.7c-5.9,0-10.7-4.8-10.7-10.7C197.4,248,202.2,252.8,202.2,258.7z"/>
	<path class="st0" d="M23.1,183.4c0-5.6,4.5-10.1,10.1-10.1C33.2,178.9,28.7,183.4,23.1,183.4z"/>
	<path class="st2" d="M54,185.5c-7.9,0-14.3-6.4-14.3-14.2C47.6,171.2,54,177.6,54,185.5z"/>
	<path class="st2" d="M53.7,110.2c-7.6,0-13.7-6.1-13.7-13.7C47.6,96.5,53.7,102.6,53.7,110.2z"/>
	<path class="st1" d="M72.8,96.1c0,8-6.5,14.4-14.4,14.4C58.4,102.6,64.9,96.1,72.8,96.1z"/>
	<path class="st0" d="M53.3,78.2c0,7-5.7,12.7-12.8,12.7C40.5,83.9,46.2,78.2,53.3,78.2z"/>
	<path class="st0" d="M260.7,358.3c0,8.4-6.8,15.2-15.2,15.2C245.5,365.1,252.3,358.3,260.7,358.3z"/>
	<path class="st1" d="M111.7,55.6c-9.4,0-17.1-7.6-17.1-17.1C104,38.6,111.7,46.2,111.7,55.6z"/>
	<path class="st1" d="M14.7,379.3c0,5.9-4.8,10.7-10.7,10.7C4,384,8.8,379.3,14.7,379.3z"/>
	<path class="st0" d="M21.3,447.7c0-7.6,6.1-13.7,13.7-13.7C35,441.6,28.8,447.7,21.3,447.7z"/>
	<path class="st1" d="M51.8,445.7c-5.4,0-9.8-4.4-9.8-9.7C47.4,436,51.8,440.3,51.8,445.7z"/>
	<path class="st1" d="M337,431.9c0,9.8-8,17.8-17.8,17.8C319.2,439.9,327.2,431.9,337,431.9z"/>
	<path class="st0" d="M301.7,433.2c8.5,0,15.4,6.9,15.4,15.4C308.6,448.5,301.7,441.6,301.7,433.2z"/>
	<path class="st0" d="M266.8,352.2c0-5.6,4.5-10.1,10.1-10.1C276.9,347.6,272.4,352.2,266.8,352.2z"/>
	<path class="st2" d="M266.8,323.3c5.6,0,10.1,4.5,10.1,10.1C271.4,333.4,266.8,328.9,266.8,323.3z"/>
	<path class="st2" d="M33,136c0,5.4-4.4,9.7-9.8,9.7C23.3,140.4,27.6,136,33,136z"/>
	<path class="st0" d="M34.2,165.7c-6.7,0-12.2-5.5-12.2-12.2C28.8,153.5,34.2,159,34.2,165.7z"/>
	<path class="st1" d="M55.6,149.6c-9.6,0-17.4-7.8-17.4-17.4C47.8,132.2,55.6,140,55.6,149.6z"/>
	<path class="st1" d="M54.1,152.4c0,8-6.5,14.4-14.4,14.4C39.7,158.9,46.1,152.4,54.1,152.4z"/>
	<path class="st1" d="M96.6,184.9c0-7.2,5.9-13.1,13.1-13.1C109.7,179.1,103.8,184.9,96.6,184.9z"/>
	<path class="st0" d="M90.2,184.2c-6.4,0-11.6-5.2-11.6-11.6C85,172.6,90.2,177.8,90.2,184.2z"/>
	<path class="st1" d="M97.1,153.6c6.6,0,12,5.4,12,12C102.5,165.6,97.1,160.3,97.1,153.6z"/>
	<path class="st1" d="M172.6,183.9c0-6.1,5-11.1,11.1-11.1C183.7,179,178.7,183.9,172.6,183.9z"/>
	<path class="st1" d="M245.2,226.7c8.8,0,15.9,7.1,15.9,15.9C252.3,242.6,245.2,235.5,245.2,226.7z"/>
	<path class="st0" d="M126.8,220.8c-5.5,0-9.9-4.4-9.9-9.9C122.4,210.9,126.8,215.4,126.8,220.8z"/>
	<path class="st2" d="M96.2,222.8c0-7.7,6.2-13.9,13.9-13.9C110.1,216.6,103.9,222.8,96.2,222.8z"/>
	<path class="st1" d="M408.8,435.2c0,6.2-5,11.2-11.3,11.2C397.5,440.3,402.6,435.2,408.8,435.2z"/>
	<path class="st1" d="M379.6,426.9c0-5.3,4.3-9.6,9.6-9.6C389.2,422.6,384.9,426.9,379.6,426.9z"/>
	<path class="st2" d="M169.2,113.2c9.8,0,17.8,8,17.8,17.8C177.2,131,169.2,123.1,169.2,113.2z"/>
	<path class="st1" d="M191.8,164.7c0-5.6,4.5-10.1,10.1-10.1C201.9,160.2,197.4,164.7,191.8,164.7z"/>
	<path class="st0" d="M228.3,203.2c0-6.7,5.5-12.2,12.2-12.2C240.5,197.8,235,203.2,228.3,203.2z"/>
	<path class="st1" d="M248,192c5.7,0,10.3,4.6,10.3,10.3C252.6,202.3,248,197.7,248,192z"/>
	<path class="st2" d="M245.6,223.4c0-8.3,6.7-15,15-15C260.6,216.7,253.9,223.4,245.6,223.4z"/>
	<path class="st1" d="M37.2,281.2c-10,0-18.2-8.1-18.2-18.2C29.1,263,37.2,271.2,37.2,281.2z"/>
	<path class="st1" d="M411.7,394.8c0,9.4-7.6,17.1-17.1,17.1C394.6,402.5,402.2,394.8,411.7,394.8z"/>
	<path class="st0" d="M397.8,416.8c5.9,0,10.7,4.8,10.7,10.7C402.6,427.4,397.8,422.7,397.8,416.8z"/>
	<path class="st1" d="M59.6,221.9c0-6.6,5.4-12,12-12C71.6,216.5,66.3,221.9,59.6,221.9z"/>
	<path class="st1" d="M56,188c0,10-8.1,18.2-18.2,18.2C37.8,196.2,45.9,188,56,188z"/>
	<path class="st2" d="M33.8,427.8c-6.3,0-11.4-5.1-11.4-11.4C28.7,416.4,33.8,421.5,33.8,427.8z"/>
	<path class="st1" d="M54.2,414.8c0,8.1-6.5,14.6-14.6,14.6C39.6,421.3,46.1,414.8,54.2,414.8z"/>
	<path class="st1" d="M415.9,390.6c0-6.6,5.4-12,12-12C427.9,385.2,422.5,390.6,415.9,390.6z"/>
	<path class="st1" d="M416.1,397.5c6.4,0,11.6,5.2,11.6,11.6C421.3,409.2,416.1,404,416.1,397.5z"/>
	<path class="st0" d="M434.2,415.6c7.1,0,12.9,5.8,12.9,12.9C440,428.6,434.2,422.8,434.2,415.6z"/>
	<path class="st1" d="M446.5,397.5c0,6.4-5.2,11.6-11.6,11.6C434.8,402.7,440,397.5,446.5,397.5z"/>
	<path class="st0" d="M434.3,303.2c7,0,12.8,5.7,12.8,12.7C440,316,434.3,310.3,434.3,303.2z"/>
	<path class="st1" d="M322.4,378.9c6.3,0,11.4,5.1,11.4,11.4C327.5,390.3,322.4,385.2,322.4,378.9z"/>
	<path class="st0" d="M336.4,357.6c0,9.1-7.4,16.5-16.5,16.5C319.9,365,327.3,357.6,336.4,357.6z"/>
	<path class="st1" d="M338.2,357.1c9.6,0,17.4,7.8,17.4,17.4C346,374.6,338.2,366.8,338.2,357.1z"/>
	<path class="st2" d="M416.7,277.3c0-5.7,4.6-10.3,10.3-10.3C427,272.7,422.4,277.3,416.7,277.3z"/>
	<path class="st1" d="M416.7,248.2c5.7,0,10.3,4.6,10.3,10.3C421.4,258.5,416.7,253.9,416.7,248.2z"/>
	<path class="st1" d="M92.6,149.1c-9.1,0-16.5-7.4-16.5-16.5C85.2,132.6,92.6,140,92.6,149.1z"/>
	<path class="st2" d="M36.4,55.3c-9.1,0-16.5-7.4-16.5-16.5C29,38.8,36.4,46.2,36.4,55.3z"/>
	<path class="st0" d="M108.9,277.9c-6.4,0-11.6-5.2-11.6-11.6C103.7,266.3,108.9,271.5,108.9,277.9z"/>
	<path class="st1" d="M94.3,299.7c0-9.7,7.9-17.6,17.6-17.6C111.9,291.8,104,299.7,94.3,299.7z"/>
	<path class="st1" d="M92,264.5c0,8.4-6.8,15.2-15.2,15.2C76.8,271.3,83.6,264.5,92,264.5z"/>
	<path class="st1" d="M92.6,299.1c-9.1,0-16.5-7.4-16.5-16.5C85.2,282.6,92.6,290,92.6,299.1z"/>
	<path class="st0" d="M243.3,300.7c0,9.8-8,17.8-17.8,17.8C225.5,308.7,233.5,300.7,243.3,300.7z"/>
	<path class="st0" d="M278.6,297.6c-7.5,0-13.5-6-13.5-13.5C272.6,284.1,278.6,290.2,278.6,297.6z"/>
	<path class="st1" d="M262.6,318.9c0-10.3,8.3-18.6,18.6-18.6C281.2,310.6,272.9,318.9,262.6,318.9z"/>
	<path class="st2" d="M247.1,303.6c6.6,0,12,5.4,12,12C252.5,315.6,247.1,310.2,247.1,303.6z"/>
	<path class="st1" d="M17.3,301.6c0,8.8-7.1,15.9-15.9,15.9C1.4,308.8,8.5,301.6,17.3,301.6z"/>
	<path class="st1" d="M223.5,395.5c0,8.7-7.1,15.7-15.8,15.7C207.8,402.5,214.8,395.5,223.5,395.5z"/>
	<path class="st1" d="M221.2,390.1c-6.1,0-11.1-5-11.1-11.1C216.2,379.1,221.2,384,221.2,390.1z"/>
	<path class="st0" d="M201.9,379.5c0,5.6-4.5,10.1-10.1,10.1C191.8,384.1,196.4,379.5,201.9,379.5z"/>
	<path class="st1" d="M58.4,35.6c0-8,6.5-14.4,14.4-14.4C72.8,29.1,66.4,35.6,58.4,35.6z"/>
	<path class="st0" d="M71.7,15.7c-6.7,0-12.2-5.5-12.2-12.2C66.3,3.5,71.7,9,71.7,15.7z"/>
	<path class="st1" d="M55.3,36.8c-9.3,0-16.9-7.6-16.9-16.9C47.8,19.9,55.3,27.5,55.3,36.8z"/>
	<path class="st1" d="M129.2,185.7c-8.1,0-14.6-6.5-14.6-14.6C122.6,171.1,129.2,177.6,129.2,185.7z"/>
	<path class="st2" d="M148.6,95.4c0,8.8-7.1,15.9-15.9,15.9C132.7,102.5,139.8,95.4,148.6,95.4z"/>
	<path class="st1" d="M16.1,227.9c0,7.5-6,13.5-13.5,13.5C2.6,233.9,8.7,227.9,16.1,227.9z"/>
	<path class="st1" d="M33.5,240c-5.9,0-10.7-4.8-10.7-10.7C28.7,229.3,33.5,234.1,33.5,240z"/>
	<path class="st0" d="M20.8,260.7c0-8.1,6.5-14.6,14.6-14.6C35.4,254.1,28.9,260.7,20.8,260.7z"/>
	<path class="st0" d="M16.1,265.4c0,7.5-6,13.5-13.5,13.5C2.6,271.4,8.7,265.4,16.1,265.4z"/>
	<path class="st2" d="M14.4,258.4c-5.6,0-10.1-4.5-10.1-10.1C9.9,248.3,14.4,252.8,14.4,258.4z"/>
	<path class="st1" d="M93.4,413.1c0,9.9-8.1,18-18,18C75.4,421.2,83.4,413.1,93.4,413.1z"/>
	<path class="st1" d="M91.3,410.3c-7.7,0-13.9-6.2-13.9-13.9C85.1,396.4,91.3,402.6,91.3,410.3z"/>
	<path class="st1" d="M18.2,224.7c-9.7,0-17.6-7.9-17.6-17.6C10.3,207.1,18.2,214.9,18.2,224.7z"/>
	<path class="st1" d="M20.3,223.7c0-8.7,7.1-15.7,15.8-15.7C36,216.7,28.9,223.7,20.3,223.7z"/>
	<path class="st1" d="M73.4,392.4c-8.6,0-15.6-7-15.6-15.6C66.4,376.8,73.4,383.8,73.4,392.4z"/>
	<path class="st1" d="M54.2,410.7c-8.1,0-14.6-6.5-14.6-14.6C47.6,396,54.2,402.6,54.2,410.7z"/>
	<path class="st0" d="M173.1,408.4c0-5.6,4.5-10.1,10.1-10.1C183.2,403.9,178.7,408.4,173.1,408.4z"/>
	<path class="st1" d="M205.2,413.8c0,9.2-7.5,16.7-16.7,16.7C188.5,421.2,196,413.8,205.2,413.8z"/>
	<path class="st1" d="M204.8,411.2c-8.7,0-15.8-7.1-15.8-15.7C197.7,395.5,204.8,402.5,204.8,411.2z"/>
	<path class="st1" d="M374.5,431.9c0,9.8-8,17.8-17.8,17.8C356.7,439.9,364.7,431.9,374.5,431.9z"/>
	<path class="st0" d="M378.1,434.6c6.9,0,12.6,5.6,12.6,12.6C383.7,447.1,378.1,441.5,378.1,434.6z"/>
	<path class="st1" d="M228.9,240.1c0-6,4.9-10.9,10.9-10.9C239.8,235.2,235,240.1,228.9,240.1z"/>
	<path class="st0" d="M241.8,223.3c-8.2,0-14.8-6.6-14.8-14.8C235.2,208.5,241.8,215.1,241.8,223.3z"/>
	<path class="st2" d="M167.7,376.3c0,9.2-7.5,16.7-16.7,16.7C151,383.7,158.5,376.3,167.7,376.3z"/>
	<path class="st1" d="M131.6,188.1c9.9,0,18,8.1,18,18C139.7,206.1,131.6,198.1,131.6,188.1z"/>
	<path class="st1" d="M152.8,203.7c0-7.2,5.9-13.1,13.1-13.1C165.9,197.8,160.1,203.7,152.8,203.7z"/>
	<path class="st2" d="M164.6,183.6c-5.8,0-10.5-4.7-10.5-10.5C159.9,173.1,164.6,177.8,164.6,183.6z"/>
	<path class="st1" d="M132.5,186.5c0-9,7.3-16.3,16.3-16.3C148.8,179.2,141.5,186.5,132.5,186.5z"/>
	<path class="st1" d="M95.5,373.4c0-8.4,6.8-15.2,15.2-15.2C110.7,366.6,103.9,373.4,95.5,373.4z"/>
	<path class="st1" d="M265.8,434.8c6.7,0,12.2,5.5,12.2,12.2C271.2,446.9,265.8,441.5,265.8,434.8z"/>
	<path class="st1" d="M298.8,430.3c-9,0-16.3-7.3-16.3-16.3C291.5,413.9,298.8,421.2,298.8,430.3z"/>
	<path class="st2" d="M58.3,298.2c0-8.1,6.5-14.6,14.6-14.6C72.9,291.6,66.4,298.2,58.3,298.2z"/>
	<path class="st1" d="M226.6,279.9c0-8.6,7-15.6,15.6-15.6C242.2,272.9,235.2,279.9,226.6,279.9z"/>
	<path class="st1" d="M241.5,298c-7.9,0-14.3-6.4-14.3-14.2C235.1,283.7,241.5,290.1,241.5,298z"/>
	<path class="st1" d="M53.4,372.4c-7.2,0-13.1-5.9-13.1-13.1C47.6,359.3,53.4,365.2,53.4,372.4z"/>
	<path class="st1" d="M18.8,375.2c0-10.4,8.4-18.7,18.8-18.7C37.5,366.8,29.1,375.2,18.8,375.2z"/>
	<path class="st0" d="M55.6,375.9c0,9.6-7.8,17.4-17.4,17.4C38.2,383.7,46,375.9,55.6,375.9z"/>
	<path class="st2" d="M299.3,393.2c-9.5,0-17.3-7.7-17.3-17.2C291.5,376,299.3,383.7,299.3,393.2z"/>
	<path class="st2" d="M296.3,397.7c0,6.2-5,11.2-11.3,11.2C285,402.8,290,397.7,296.3,397.7z"/>
	<path class="st1" d="M280.6,375.9c0,9.6-7.8,17.4-17.4,17.4C263.2,383.7,271,375.9,280.6,375.9z"/>
	<path class="st0" d="M167.2,414.3c0,8.6-7,15.6-15.6,15.6C151.6,421.3,158.6,414.3,167.2,414.3z"/>
	<path class="st1" d="M164.4,445.9c-5.6,0-10.1-4.5-10.1-10.1C159.9,435.8,164.4,440.3,164.4,445.9z"/>
	<path class="st0" d="M340.6,278.4c0-6.9,5.6-12.6,12.6-12.6C353.2,272.8,347.5,278.4,340.6,278.4z"/>
	<path class="st1" d="M323.4,267.3c5.3,0,9.6,4.3,9.6,9.6C327.6,276.9,323.4,272.6,323.4,267.3z"/>
	<path class="st0" d="M321.9,259.6c0-6.9,5.6-12.6,12.6-12.6C334.4,254,328.8,259.6,321.9,259.6z"/>
	<path class="st2" d="M339.5,246c8.2,0,14.8,6.6,14.8,14.8C346.1,260.8,339.5,254.1,339.5,246z"/>
</g>
<g class="st3">
	<path class="st4" d="M34.2,58.2c0,0.1-0.1,0.1-0.1,0.1c0,0-0.1,0.1-0.2,0.1c-0.1,0-0.2,0-0.3,0c-0.1,0-0.3,0-0.5,0
		c-0.2,0-0.3,0-0.4,0c-0.1,0-0.2,0-0.3,0c-0.1,0-0.2,0-0.2,0c-0.1,0-0.1,0-0.2,0c0,0-0.1,0-0.1-0.1c0,0,0-0.1-0.1-0.1l-4.4-8.8
		c-0.1-0.1-0.1-0.2-0.1-0.3c0-0.1,0-0.1,0.1-0.1c0.1,0,0.2-0.1,0.3-0.1c0.1,0,0.3,0,0.6,0c0.2,0,0.4,0,0.5,0c0.1,0,0.2,0,0.3,0
		c0.1,0,0.1,0,0.1,0.1c0,0,0.1,0.1,0.1,0.1l3.9,7.9h0l3.8-7.9c0-0.1,0-0.1,0.1-0.1S37,49,37.1,49c0.1,0,0.2,0,0.3,0
		c0.1,0,0.3,0,0.5,0c0.2,0,0.4,0,0.5,0c0.1,0,0.2,0,0.3,0.1c0,0,0.1,0.1,0.1,0.1c0,0.1,0,0.2-0.1,0.3L34.2,58.2z"/>
	<path class="st4" d="M47.7,54.7c0,0.2-0.1,0.3-0.2,0.4c-0.1,0.1-0.3,0.1-0.5,0.1l-6.2,0c0,0.4,0.1,0.7,0.2,1
		c0.1,0.3,0.3,0.5,0.5,0.8c0.2,0.2,0.6,0.4,1,0.5c0.4,0.1,0.9,0.2,1.4,0.2c0.4,0,0.8,0,1.2-0.1c0.4,0,0.7-0.1,0.9-0.2
		c0.3-0.1,0.5-0.1,0.6-0.2c0.2-0.1,0.3-0.1,0.4-0.1c0,0,0.1,0,0.1,0c0,0,0.1,0,0.1,0.1c0,0,0,0.1,0,0.1c0,0.1,0,0.1,0,0.2
		c0,0.1,0,0.1,0,0.2s0,0.1,0,0.1c0,0,0,0.1-0.1,0.1c0,0-0.1,0.1-0.1,0.1c0,0-0.2,0.1-0.3,0.1c-0.2,0.1-0.4,0.1-0.7,0.2
		c-0.3,0.1-0.6,0.1-1,0.2c-0.4,0-0.8,0.1-1.3,0.1c-0.8,0-1.5-0.1-2-0.2c-0.6-0.2-1.1-0.4-1.5-0.7c-0.4-0.3-0.7-0.7-0.9-1.1
		c-0.2-0.4-0.3-1-0.3-1.6c0-0.6,0.1-1.1,0.3-1.5c0.2-0.4,0.5-0.8,0.9-1.1c0.4-0.3,0.9-0.6,1.4-0.7c0.6-0.2,1.2-0.2,1.9-0.2
		c0.7,0,1.4,0.1,1.9,0.3c0.5,0.2,0.9,0.4,1.3,0.7c0.3,0.3,0.6,0.6,0.7,1c0.2,0.4,0.2,0.8,0.2,1.2L47.7,54.7z M45.9,54.4
		c0-0.6-0.2-1.1-0.6-1.5c-0.4-0.4-1.1-0.5-1.9-0.5c-0.4,0-0.8,0.1-1.1,0.2c-0.3,0.1-0.6,0.3-0.8,0.4c-0.2,0.2-0.4,0.4-0.5,0.6
		c-0.1,0.2-0.2,0.5-0.2,0.8L45.9,54.4z"/>
	<path class="st4" d="M57.1,57.3c0,0.1,0,0.2,0,0.2c0,0.1,0,0.1,0,0.2c0,0,0,0.1-0.1,0.1c0,0-0.1,0.1-0.2,0.1
		c-0.1,0.1-0.2,0.1-0.4,0.2s-0.4,0.2-0.7,0.2c-0.3,0.1-0.5,0.1-0.9,0.2c-0.3,0-0.6,0.1-1,0.1c-0.7,0-1.3-0.1-1.8-0.2
		c-0.5-0.2-1-0.4-1.3-0.7c-0.4-0.3-0.6-0.7-0.8-1.1c-0.2-0.4-0.3-0.9-0.3-1.5c0-0.6,0.1-1.2,0.3-1.7c0.2-0.5,0.5-0.8,0.9-1.1
		c0.4-0.3,0.9-0.5,1.4-0.7c0.5-0.1,1.1-0.2,1.7-0.2c0.3,0,0.6,0,0.9,0.1c0.3,0,0.5,0.1,0.8,0.2c0.2,0.1,0.4,0.1,0.6,0.2
		s0.3,0.2,0.4,0.2c0.1,0.1,0.1,0.1,0.2,0.1c0,0,0.1,0.1,0.1,0.1c0,0,0,0.1,0,0.2c0,0.1,0,0.1,0,0.2c0,0.2,0,0.3-0.1,0.4
		c-0.1,0.1-0.1,0.1-0.2,0.1c-0.1,0-0.2,0-0.4-0.1c-0.1-0.1-0.3-0.2-0.5-0.3c-0.2-0.1-0.5-0.2-0.8-0.3c-0.3-0.1-0.6-0.1-1.1-0.1
		c-0.8,0-1.5,0.2-1.9,0.7c-0.4,0.4-0.7,1.1-0.7,1.9c0,0.4,0.1,0.8,0.2,1.1c0.1,0.3,0.3,0.6,0.5,0.8c0.2,0.2,0.5,0.4,0.8,0.5
		c0.3,0.1,0.7,0.2,1.1,0.2c0.4,0,0.7,0,1-0.1c0.3-0.1,0.6-0.2,0.8-0.3c0.2-0.1,0.4-0.2,0.6-0.3c0.1-0.1,0.3-0.1,0.4-0.1
		c0,0,0.1,0,0.1,0c0,0,0.1,0.1,0.1,0.1c0,0,0,0.1,0.1,0.2C57.1,57.1,57.1,57.2,57.1,57.3z"/>
	<path class="st4" d="M64.3,57.8c0,0.1,0,0.3,0,0.3c0,0.1-0.1,0.1-0.1,0.2c-0.1,0-0.1,0.1-0.3,0.1c-0.1,0-0.2,0.1-0.4,0.1
		c-0.1,0-0.3,0-0.5,0.1c-0.2,0-0.3,0-0.5,0c-0.5,0-0.9,0-1.3-0.1c-0.3-0.1-0.6-0.2-0.9-0.4c-0.2-0.2-0.4-0.4-0.5-0.7
		c-0.1-0.3-0.2-0.6-0.2-1l0-3.8l-1.3,0c-0.1,0-0.2,0-0.3-0.1c-0.1-0.1-0.1-0.2-0.1-0.4c0-0.1,0-0.2,0-0.2c0-0.1,0-0.1,0.1-0.2
		c0,0,0.1-0.1,0.1-0.1c0,0,0.1,0,0.2,0l1.3,0l0-1.6c0,0,0-0.1,0-0.1c0,0,0.1-0.1,0.1-0.1c0.1,0,0.2,0,0.3,0c0.1,0,0.3,0,0.4,0
		c0.2,0,0.3,0,0.4,0c0.1,0,0.2,0,0.3,0c0.1,0,0.1,0,0.1,0.1s0,0.1,0,0.1l0,1.6l2.4,0c0.1,0,0.1,0,0.1,0c0,0,0.1,0,0.1,0.1
		c0,0,0.1,0.1,0.1,0.2c0,0.1,0,0.1,0,0.2c0,0.2,0,0.3-0.1,0.4c-0.1,0.1-0.1,0.1-0.3,0.1l-2.4,0l0,3.7c0,0.5,0.1,0.8,0.3,1
		c0.2,0.2,0.5,0.3,1,0.3c0.2,0,0.3,0,0.4,0c0.1,0,0.2,0,0.3-0.1s0.2,0,0.3-0.1c0.1,0,0.1,0,0.2,0c0,0,0.1,0,0.1,0c0,0,0.1,0,0.1,0.1
		c0,0,0,0.1,0,0.1C64.3,57.7,64.3,57.7,64.3,57.8z"/>
	<path class="st4" d="M75.1,55c0,0.5-0.1,1-0.3,1.5c-0.2,0.4-0.5,0.8-0.9,1.2c-0.4,0.3-0.9,0.6-1.5,0.8c-0.6,0.2-1.3,0.3-2.1,0.3
		c-0.8,0-1.5-0.1-2-0.2c-0.6-0.2-1.1-0.4-1.4-0.7c-0.4-0.3-0.7-0.7-0.9-1.1c-0.2-0.4-0.3-0.9-0.3-1.5c0-0.5,0.1-1,0.3-1.5
		c0.2-0.4,0.5-0.8,0.9-1.2c0.4-0.3,0.9-0.6,1.5-0.8c0.6-0.2,1.3-0.3,2.1-0.3c0.8,0,1.5,0.1,2,0.2c0.6,0.2,1.1,0.4,1.4,0.7
		c0.4,0.3,0.7,0.7,0.9,1.1S75.1,54.4,75.1,55z M73.3,55c0-0.4,0-0.7-0.1-1c-0.1-0.3-0.3-0.6-0.5-0.8c-0.2-0.2-0.5-0.4-0.9-0.6
		c-0.4-0.1-0.8-0.2-1.4-0.2c-0.5,0-1,0.1-1.3,0.2c-0.4,0.1-0.7,0.3-0.9,0.5c-0.2,0.2-0.4,0.5-0.5,0.8c-0.1,0.3-0.2,0.7-0.2,1
		c0,0.4,0,0.7,0.1,1c0.1,0.3,0.3,0.6,0.5,0.8c0.2,0.2,0.5,0.4,0.9,0.6c0.4,0.1,0.8,0.2,1.4,0.2c0.5,0,0.9-0.1,1.3-0.2
		c0.4-0.1,0.7-0.3,0.9-0.5c0.2-0.2,0.4-0.5,0.5-0.8C73.3,55.8,73.3,55.4,73.3,55z"/>
	<path class="st4" d="M83.2,52.2c0,0.1,0,0.2,0,0.3c0,0.1,0,0.1,0,0.2c0,0,0,0.1-0.1,0.1c0,0-0.1,0-0.1,0c-0.1,0-0.1,0-0.2,0
		c-0.1,0-0.2,0-0.3-0.1c-0.1,0-0.2,0-0.3-0.1s-0.3,0-0.4,0c-0.2,0-0.3,0-0.5,0.1c-0.2,0-0.3,0.1-0.5,0.2c-0.2,0.1-0.4,0.3-0.6,0.4
		c-0.2,0.2-0.4,0.4-0.7,0.7l0,4.3c0,0,0,0.1,0,0.1c0,0-0.1,0.1-0.1,0.1c-0.1,0-0.2,0-0.3,0c-0.1,0-0.3,0-0.4,0c-0.2,0-0.3,0-0.4,0
		c-0.1,0-0.2,0-0.3,0c-0.1,0-0.1,0-0.1-0.1c0,0,0-0.1,0-0.1l0-6.6c0,0,0-0.1,0-0.1c0,0,0.1-0.1,0.1-0.1c0.1,0,0.1,0,0.2,0
		c0.1,0,0.2,0,0.4,0c0.2,0,0.3,0,0.4,0c0.1,0,0.2,0,0.2,0c0.1,0,0.1,0,0.1,0.1c0,0,0,0.1,0,0.1l0,1c0.3-0.3,0.5-0.5,0.7-0.6
		c0.2-0.2,0.4-0.3,0.6-0.4c0.2-0.1,0.4-0.2,0.6-0.2c0.2,0,0.4-0.1,0.6-0.1c0.1,0,0.2,0,0.3,0c0.1,0,0.2,0,0.4,0s0.2,0,0.3,0.1
		c0.1,0,0.2,0,0.2,0.1c0,0,0.1,0,0.1,0.1c0,0,0,0,0,0.1c0,0,0,0.1,0,0.1C83.2,52,83.2,52.1,83.2,52.2z"/>
	<path class="st4" d="M99.1,55.8c0,0.3-0.1,0.6-0.2,0.8c-0.1,0.3-0.3,0.5-0.5,0.7c-0.2,0.2-0.4,0.4-0.7,0.5
		c-0.3,0.2-0.6,0.3-0.9,0.4c-0.3,0.1-0.7,0.2-1.1,0.2c-0.4,0-0.8,0.1-1.4,0.1l-3.5,0c-0.2,0-0.3,0-0.5-0.1c-0.1-0.1-0.2-0.2-0.2-0.4
		l0-8.4c0-0.2,0.1-0.3,0.2-0.4c0.1-0.1,0.3-0.1,0.5-0.1l3.1,0c0.8,0,1.5,0.1,2,0.2c0.5,0.1,0.9,0.3,1.3,0.5c0.3,0.2,0.6,0.5,0.8,0.8
		c0.2,0.3,0.3,0.6,0.3,1c0,0.2,0,0.4-0.1,0.6c-0.1,0.2-0.2,0.4-0.3,0.6c-0.2,0.2-0.3,0.3-0.6,0.5c-0.2,0.1-0.5,0.2-0.8,0.3
		c0.4,0,0.7,0.1,1,0.3c0.3,0.1,0.6,0.3,0.8,0.5c0.2,0.2,0.4,0.4,0.6,0.7C99.1,55.2,99.1,55.5,99.1,55.8z M96.4,51.6
		c0-0.2,0-0.4-0.1-0.6c-0.1-0.2-0.2-0.3-0.4-0.5c-0.2-0.1-0.4-0.2-0.8-0.3c-0.3-0.1-0.7-0.1-1.2-0.1l-1.9,0l0,3.1l2,0
		c0.5,0,0.8,0,1.1-0.1c0.3-0.1,0.5-0.2,0.7-0.3c0.2-0.1,0.3-0.3,0.4-0.5C96.4,52,96.4,51.8,96.4,51.6z M97.2,55.9
		c0-0.3-0.1-0.5-0.2-0.7c-0.1-0.2-0.3-0.4-0.6-0.5c-0.2-0.1-0.6-0.3-0.9-0.3c-0.4-0.1-0.8-0.1-1.4-0.1l-2.2,0l0,3.3l2.6,0
		c0.4,0,0.8,0,1.1-0.1c0.3-0.1,0.6-0.2,0.8-0.3c0.2-0.1,0.4-0.3,0.5-0.5C97.2,56.4,97.2,56.2,97.2,55.9z"/>
	<path class="st4" d="M108.8,58.4c0,0.1,0,0.1-0.1,0.1c-0.1,0-0.1,0.1-0.2,0.1c-0.1,0-0.2,0-0.4,0c-0.2,0-0.3,0-0.4,0
		c-0.1,0-0.2,0-0.2-0.1c0,0-0.1-0.1-0.1-0.1l0-0.7c-0.4,0.3-0.9,0.5-1.4,0.7c-0.5,0.2-1,0.3-1.6,0.3c-0.5,0-0.9,0-1.3-0.1
		c-0.4-0.1-0.7-0.2-1-0.4c-0.3-0.2-0.5-0.4-0.7-0.6c-0.2-0.2-0.2-0.5-0.2-0.8c0-0.4,0.1-0.7,0.3-1c0.2-0.3,0.5-0.5,0.9-0.7
		c0.4-0.2,0.9-0.3,1.5-0.4c0.6-0.1,1.2-0.1,2-0.1l1.3,0l0-0.5c0-0.3,0-0.5-0.1-0.7c-0.1-0.2-0.2-0.4-0.4-0.5
		c-0.2-0.1-0.4-0.2-0.7-0.3c-0.3-0.1-0.6-0.1-1-0.1c-0.4,0-0.8,0-1.1,0.1c-0.3,0.1-0.6,0.1-0.9,0.2c-0.3,0.1-0.5,0.2-0.6,0.2
		c-0.2,0.1-0.3,0.1-0.4,0.1c-0.1,0-0.1,0-0.1,0s-0.1,0-0.1-0.1c0,0-0.1-0.1-0.1-0.1c0-0.1,0-0.1,0-0.2c0-0.1,0-0.2,0-0.3
		c0-0.1,0.1-0.1,0.2-0.2c0.1-0.1,0.3-0.1,0.5-0.2c0.2-0.1,0.5-0.2,0.8-0.2c0.3-0.1,0.6-0.1,1-0.2c0.4,0,0.7-0.1,1.1-0.1
		c0.7,0,1.3,0.1,1.7,0.2c0.5,0.1,0.9,0.3,1.2,0.5c0.3,0.2,0.5,0.5,0.6,0.8c0.1,0.3,0.2,0.7,0.2,1.1L108.8,58.4z M107.1,55.4l-1.5,0
		c-0.5,0-0.9,0-1.2,0.1c-0.3,0.1-0.6,0.1-0.9,0.2c-0.2,0.1-0.4,0.2-0.5,0.4c-0.1,0.2-0.2,0.3-0.2,0.5c0,0.3,0.2,0.6,0.5,0.8
		c0.3,0.2,0.7,0.3,1.3,0.3c0.5,0,0.9-0.1,1.3-0.2c0.4-0.2,0.8-0.4,1.2-0.7L107.1,55.4z"/>
	<path class="st4" d="M118.7,57.4c0,0.1,0,0.2,0,0.2c0,0.1,0,0.1,0,0.2c0,0,0,0.1-0.1,0.1c0,0-0.1,0.1-0.2,0.1
		c-0.1,0.1-0.2,0.1-0.4,0.2c-0.2,0.1-0.4,0.2-0.7,0.2c-0.3,0.1-0.5,0.1-0.9,0.2c-0.3,0-0.6,0.1-1,0.1c-0.7,0-1.3-0.1-1.8-0.2
		c-0.5-0.2-1-0.4-1.3-0.7c-0.4-0.3-0.6-0.7-0.8-1.1c-0.2-0.4-0.3-0.9-0.3-1.5c0-0.6,0.1-1.2,0.3-1.7s0.5-0.8,0.9-1.1
		c0.4-0.3,0.9-0.5,1.4-0.7c0.5-0.1,1.1-0.2,1.7-0.2c0.3,0,0.6,0,0.9,0.1c0.3,0,0.5,0.1,0.8,0.2c0.2,0.1,0.4,0.1,0.6,0.2
		c0.2,0.1,0.3,0.2,0.4,0.2c0.1,0.1,0.1,0.1,0.2,0.1c0,0,0.1,0.1,0.1,0.1c0,0,0,0.1,0,0.2c0,0.1,0,0.1,0,0.2c0,0.2,0,0.3-0.1,0.4
		c-0.1,0.1-0.1,0.1-0.2,0.1c-0.1,0-0.2,0-0.4-0.1c-0.1-0.1-0.3-0.2-0.5-0.3c-0.2-0.1-0.5-0.2-0.8-0.3c-0.3-0.1-0.6-0.1-1.1-0.1
		c-0.8,0-1.5,0.2-1.9,0.7c-0.4,0.4-0.7,1.1-0.7,1.9c0,0.4,0.1,0.8,0.2,1.1c0.1,0.3,0.3,0.6,0.5,0.8c0.2,0.2,0.5,0.4,0.8,0.5
		c0.3,0.1,0.7,0.2,1.1,0.2c0.4,0,0.7,0,1-0.1c0.3-0.1,0.6-0.2,0.8-0.3c0.2-0.1,0.4-0.2,0.6-0.3c0.1-0.1,0.3-0.1,0.4-0.1
		c0,0,0.1,0,0.1,0c0,0,0.1,0.1,0.1,0.1c0,0,0,0.1,0.1,0.2C118.7,57.2,118.7,57.3,118.7,57.4z"/>
	<path class="st4" d="M128.8,58.4c0,0,0,0.1,0,0.1s-0.1,0.1-0.1,0.1c-0.1,0-0.2,0-0.3,0c-0.1,0-0.3,0-0.5,0c-0.2,0-0.3,0-0.5,0
		c-0.1,0-0.2,0-0.3,0c-0.1,0-0.2,0-0.2-0.1c-0.1,0-0.1-0.1-0.1-0.1l-4-3.6l0,3.6c0,0,0,0.1,0,0.1c0,0-0.1,0.1-0.1,0.1
		c-0.1,0-0.2,0-0.3,0c-0.1,0-0.3,0-0.4,0c-0.2,0-0.3,0-0.4,0c-0.1,0-0.2,0-0.3,0c-0.1,0-0.1,0-0.1-0.1c0,0,0-0.1,0-0.1l0-9.7
		c0,0,0-0.1,0-0.1c0,0,0.1-0.1,0.1-0.1c0.1,0,0.2,0,0.3,0c0.1,0,0.3,0,0.4,0c0.2,0,0.3,0,0.4,0c0.1,0,0.2,0,0.3,0
		c0.1,0,0.1,0,0.1,0.1c0,0,0,0.1,0,0.1l0,5.9l3.6-2.7c0.1,0,0.1-0.1,0.2-0.1c0.1,0,0.1-0.1,0.2-0.1c0.1,0,0.2,0,0.3,0
		c0.1,0,0.3,0,0.4,0c0.2,0,0.3,0,0.4,0c0.1,0,0.2,0,0.3,0c0.1,0,0.1,0,0.2,0.1c0,0,0,0.1,0,0.1c0,0.1,0,0.1-0.1,0.2
		c0,0.1-0.1,0.1-0.2,0.2l-3.4,2.4l3.8,3.5c0.1,0.1,0.2,0.2,0.2,0.2C128.8,58.3,128.8,58.3,128.8,58.4z"/>
	<path class="st4" d="M138.7,52.1c0,0.2,0,0.3-0.1,0.4c-0.1,0.1-0.2,0.1-0.3,0.1l-1.4,0c0.2,0.2,0.4,0.4,0.5,0.6
		c0.1,0.2,0.1,0.4,0.1,0.7c0,0.4-0.1,0.7-0.3,1c-0.2,0.3-0.4,0.5-0.8,0.7c-0.3,0.2-0.7,0.4-1.2,0.5c-0.4,0.1-0.9,0.2-1.5,0.2
		c-0.4,0-0.8,0-1.1-0.1c-0.3-0.1-0.6-0.2-0.8-0.3c-0.1,0.1-0.2,0.2-0.3,0.3c-0.1,0.1-0.1,0.2-0.1,0.4c0,0.2,0.1,0.3,0.3,0.4
		s0.5,0.2,0.9,0.2l2.5,0.1c0.5,0,0.9,0.1,1.3,0.1c0.4,0.1,0.7,0.2,1,0.3c0.3,0.1,0.5,0.3,0.7,0.5c0.2,0.2,0.2,0.5,0.2,0.8
		c0,0.3-0.1,0.6-0.3,0.9c-0.2,0.3-0.5,0.5-0.8,0.7c-0.4,0.2-0.9,0.4-1.4,0.5c-0.6,0.1-1.3,0.2-2.1,0.2c-0.8,0-1.4,0-1.9-0.1
		c-0.5-0.1-1-0.2-1.3-0.4c-0.3-0.2-0.6-0.3-0.7-0.6c-0.2-0.2-0.2-0.5-0.2-0.7c0-0.2,0-0.3,0.1-0.5c0.1-0.2,0.1-0.3,0.3-0.4
		c0.1-0.1,0.3-0.3,0.4-0.4c0.2-0.1,0.4-0.2,0.6-0.4c-0.3-0.1-0.6-0.3-0.8-0.5c-0.2-0.2-0.2-0.4-0.2-0.6c0-0.3,0.1-0.6,0.3-0.8
		c0.2-0.2,0.4-0.4,0.7-0.6c-0.2-0.2-0.4-0.4-0.5-0.6c-0.1-0.2-0.2-0.5-0.2-0.8c0-0.4,0.1-0.7,0.3-1c0.2-0.3,0.4-0.5,0.8-0.8
		c0.3-0.2,0.7-0.4,1.2-0.5c0.4-0.1,0.9-0.2,1.5-0.2c0.3,0,0.6,0,0.8,0c0.2,0,0.5,0.1,0.7,0.1l2.9,0c0.1,0,0.2,0,0.3,0.1
		C138.7,51.9,138.7,52,138.7,52.1z M136.8,59.1c0-0.3-0.2-0.5-0.5-0.7c-0.3-0.2-0.8-0.2-1.3-0.2l-2.4-0.1c-0.2,0.1-0.4,0.2-0.6,0.3
		c-0.1,0.1-0.3,0.2-0.3,0.3c-0.1,0.1-0.1,0.2-0.2,0.3c0,0.1,0,0.2,0,0.3c0,0.3,0.2,0.6,0.7,0.7c0.5,0.2,1.1,0.2,1.9,0.2
		c0.5,0,1,0,1.3-0.1c0.4-0.1,0.6-0.2,0.9-0.3c0.2-0.1,0.4-0.2,0.5-0.4C136.8,59.4,136.8,59.2,136.8,59.1z M136,53.9
		c0-0.4-0.2-0.8-0.5-1c-0.4-0.3-0.9-0.4-1.5-0.4c-0.3,0-0.6,0-0.9,0.1c-0.2,0.1-0.5,0.2-0.6,0.3c-0.2,0.1-0.3,0.3-0.4,0.5
		c-0.1,0.2-0.1,0.4-0.1,0.6c0,0.4,0.2,0.8,0.5,1c0.4,0.2,0.8,0.4,1.5,0.4c0.3,0,0.6,0,0.9-0.1c0.3-0.1,0.5-0.2,0.6-0.3
		c0.2-0.1,0.3-0.3,0.4-0.5C135.9,54.2,136,54.1,136,53.9z"/>
	<path class="st4" d="M146.4,52.3c0,0.1,0,0.2,0,0.3c0,0.1,0,0.1,0,0.2c0,0,0,0.1-0.1,0.1c0,0-0.1,0-0.1,0c-0.1,0-0.1,0-0.2,0
		c-0.1,0-0.2,0-0.3-0.1c-0.1,0-0.2,0-0.3-0.1c-0.1,0-0.3,0-0.4,0c-0.2,0-0.3,0-0.5,0.1c-0.2,0-0.3,0.1-0.5,0.2
		c-0.2,0.1-0.4,0.3-0.6,0.4c-0.2,0.2-0.4,0.4-0.7,0.7l0,4.3c0,0,0,0.1,0,0.1c0,0-0.1,0.1-0.1,0.1c-0.1,0-0.2,0-0.3,0
		c-0.1,0-0.3,0-0.4,0c-0.2,0-0.3,0-0.4,0s-0.2,0-0.3,0c-0.1,0-0.1,0-0.1-0.1c0,0,0-0.1,0-0.1l0-6.6c0,0,0-0.1,0-0.1
		c0,0,0.1-0.1,0.1-0.1c0.1,0,0.1,0,0.2,0c0.1,0,0.2,0,0.4,0c0.2,0,0.3,0,0.4,0c0.1,0,0.2,0,0.2,0c0.1,0,0.1,0,0.1,0.1
		c0,0,0,0.1,0,0.1l0,1c0.3-0.3,0.5-0.5,0.7-0.6c0.2-0.2,0.4-0.3,0.6-0.4c0.2-0.1,0.4-0.2,0.6-0.2c0.2,0,0.4-0.1,0.6-0.1
		c0.1,0,0.2,0,0.3,0c0.1,0,0.2,0,0.4,0c0.1,0,0.2,0,0.3,0.1c0.1,0,0.2,0,0.2,0.1c0,0,0.1,0,0.1,0.1c0,0,0,0,0,0.1c0,0,0,0.1,0,0.1
		C146.4,52.1,146.4,52.2,146.4,52.3z"/>
	<path class="st4" d="M156.8,55.1c0,0.5-0.1,1-0.3,1.5c-0.2,0.4-0.5,0.8-0.9,1.2c-0.4,0.3-0.9,0.6-1.5,0.8c-0.6,0.2-1.3,0.3-2.1,0.3
		c-0.8,0-1.5-0.1-2-0.2c-0.6-0.2-1.1-0.4-1.4-0.7c-0.4-0.3-0.7-0.7-0.9-1.1c-0.2-0.4-0.3-0.9-0.3-1.5c0-0.5,0.1-1,0.3-1.5
		c0.2-0.4,0.5-0.8,0.9-1.2c0.4-0.3,0.9-0.6,1.5-0.8c0.6-0.2,1.3-0.3,2.1-0.3c0.8,0,1.5,0.1,2,0.2c0.6,0.2,1.1,0.4,1.4,0.7
		c0.4,0.3,0.7,0.7,0.9,1.1C156.7,54,156.8,54.5,156.8,55.1z M155,55.2c0-0.4,0-0.7-0.1-1c-0.1-0.3-0.3-0.6-0.5-0.8
		c-0.2-0.2-0.5-0.4-0.9-0.6c-0.4-0.1-0.8-0.2-1.4-0.2c-0.5,0-1,0.1-1.3,0.2c-0.4,0.1-0.7,0.3-0.9,0.5c-0.2,0.2-0.4,0.5-0.5,0.8
		c-0.1,0.3-0.2,0.7-0.2,1c0,0.4,0,0.7,0.1,1c0.1,0.3,0.3,0.6,0.5,0.8c0.2,0.2,0.5,0.4,0.9,0.6c0.4,0.1,0.8,0.2,1.4,0.2
		c0.5,0,0.9-0.1,1.3-0.2c0.4-0.1,0.7-0.3,0.9-0.5c0.2-0.2,0.4-0.5,0.5-0.8C155,55.9,155,55.5,155,55.2z"/>
	<path class="st4" d="M167.4,58.4C167.4,58.5,167.4,58.5,167.4,58.4c-0.1,0.1-0.1,0.1-0.2,0.2c-0.1,0-0.1,0-0.2,0
		c-0.1,0-0.2,0-0.4,0c-0.2,0-0.3,0-0.4,0c-0.1,0-0.2,0-0.2,0c-0.1,0-0.1,0-0.1-0.1c0,0,0-0.1,0-0.1l0-0.9c-0.5,0.4-1.1,0.7-1.6,0.9
		c-0.5,0.2-1.1,0.3-1.6,0.3c-0.6,0-1.2-0.1-1.6-0.2c-0.4-0.1-0.8-0.3-1-0.6c-0.3-0.3-0.5-0.5-0.6-0.9c-0.1-0.3-0.2-0.7-0.2-1.2l0-4
		c0,0,0-0.1,0-0.1c0,0,0.1-0.1,0.1-0.1c0.1,0,0.2,0,0.3,0c0.1,0,0.3,0,0.4,0c0.2,0,0.3,0,0.4,0c0.1,0,0.2,0,0.3,0
		c0.1,0,0.1,0,0.1,0.1c0,0,0,0.1,0,0.1l0,3.8c0,0.4,0,0.7,0.1,0.9c0.1,0.2,0.2,0.4,0.4,0.6c0.2,0.2,0.4,0.3,0.6,0.4
		c0.3,0.1,0.5,0.1,0.9,0.1c0.4,0,0.9-0.1,1.3-0.3c0.4-0.2,0.9-0.5,1.4-0.9l0-4.6c0,0,0-0.1,0-0.1c0,0,0.1-0.1,0.1-0.1
		c0.1,0,0.2,0,0.3,0c0.1,0,0.3,0,0.4,0c0.2,0,0.3,0,0.4,0c0.1,0,0.2,0,0.3,0c0.1,0,0.1,0,0.1,0.1c0,0,0,0.1,0,0.1L167.4,58.4z"/>
	<path class="st4" d="M178.8,58.5C178.8,58.5,178.8,58.5,178.8,58.5c-0.1,0.1-0.1,0.1-0.2,0.2c-0.1,0-0.2,0-0.3,0
		c-0.1,0-0.3,0-0.4,0c-0.2,0-0.3,0-0.4,0c-0.1,0-0.2,0-0.3,0c-0.1,0-0.1,0-0.1-0.1c0,0,0-0.1,0-0.1l0-3.8c0-0.4,0-0.7-0.1-0.9
		c-0.1-0.2-0.2-0.4-0.4-0.6c-0.2-0.2-0.4-0.3-0.6-0.4c-0.3-0.1-0.5-0.1-0.9-0.1c-0.4,0-0.9,0.1-1.3,0.3c-0.4,0.2-0.9,0.5-1.4,0.9
		l0,4.6c0,0,0,0.1,0,0.1c0,0-0.1,0.1-0.1,0.1c-0.1,0-0.2,0-0.3,0c-0.1,0-0.3,0-0.4,0c-0.2,0-0.3,0-0.4,0s-0.2,0-0.3,0
		c-0.1,0-0.1,0-0.1-0.1c0,0,0-0.1,0-0.1l0-6.6c0,0,0-0.1,0-0.1c0,0,0.1-0.1,0.1-0.1c0.1,0,0.1,0,0.2,0c0.1,0,0.2,0,0.4,0
		c0.2,0,0.3,0,0.4,0c0.1,0,0.2,0,0.2,0c0.1,0,0.1,0,0.1,0.1c0,0,0,0.1,0,0.1l0,0.9c0.5-0.4,1.1-0.7,1.6-0.9c0.5-0.2,1.1-0.3,1.6-0.3
		c0.6,0,1.2,0.1,1.6,0.2c0.4,0.1,0.8,0.3,1,0.6c0.3,0.2,0.5,0.5,0.6,0.9c0.1,0.3,0.2,0.7,0.2,1.2L178.8,58.5z"/>
	<path class="st4" d="M190,58.5c0,0,0,0.1,0,0.1c0,0-0.1,0.1-0.1,0.1c-0.1,0-0.1,0-0.2,0c-0.1,0-0.2,0-0.4,0c-0.1,0-0.3,0-0.4,0
		c-0.1,0-0.2,0-0.2,0c-0.1,0-0.1,0-0.1-0.1c0,0,0-0.1,0-0.1l0-0.9c-0.5,0.4-1,0.7-1.5,0.9c-0.5,0.2-1.1,0.3-1.8,0.3
		c-0.7,0-1.3-0.1-1.8-0.3c-0.5-0.2-0.9-0.4-1.2-0.8c-0.3-0.3-0.5-0.7-0.7-1.1c-0.1-0.4-0.2-0.9-0.2-1.4c0-0.6,0.1-1.1,0.3-1.5
		c0.2-0.5,0.4-0.8,0.8-1.2c0.3-0.3,0.8-0.6,1.3-0.7c0.5-0.2,1.1-0.3,1.8-0.3c0.6,0,1.1,0.1,1.5,0.3c0.5,0.2,0.9,0.4,1.4,0.7l0-3.8
		c0,0,0-0.1,0-0.1c0,0,0.1-0.1,0.1-0.1c0.1,0,0.2,0,0.3,0c0.1,0,0.2,0,0.4,0c0.2,0,0.3,0,0.4,0c0.1,0,0.2,0,0.3,0
		c0.1,0,0.1,0,0.1,0.1c0,0,0,0.1,0,0.1L190,58.5z M188.3,53.9c-0.5-0.4-0.9-0.7-1.4-0.9c-0.4-0.2-0.9-0.3-1.4-0.3
		c-0.4,0-0.8,0.1-1.1,0.2s-0.6,0.3-0.7,0.6c-0.2,0.2-0.3,0.5-0.4,0.8c-0.1,0.3-0.1,0.6-0.1,0.9c0,0.3,0,0.7,0.1,1
		c0.1,0.3,0.2,0.6,0.4,0.8c0.2,0.2,0.4,0.4,0.7,0.6c0.3,0.1,0.7,0.2,1.1,0.2c0.2,0,0.5,0,0.7-0.1s0.4-0.1,0.7-0.2
		c0.2-0.1,0.5-0.2,0.7-0.4c0.2-0.2,0.5-0.4,0.8-0.6L188.3,53.9z"/>
</g>
<g class="st3">
	<g class="st5">
		<path class="st6" d="M34.7,74.2c0,0.2-0.1,0.4-0.2,0.5c-0.1,0.2-0.3,0.3-0.5,0.4c-0.2,0.1-0.5,0.2-0.8,0.3
			c-0.3,0.1-0.7,0.1-1.2,0.1l-0.8,0l0,1.4c0,0,0,0,0,0c0,0,0,0-0.1,0c0,0-0.1,0-0.1,0c-0.1,0-0.1,0-0.2,0c-0.1,0-0.2,0-0.2,0
			c-0.1,0-0.1,0-0.1,0c0,0-0.1,0-0.1,0c0,0,0,0,0,0l0-3.6c0-0.1,0-0.1,0.1-0.2c0.1,0,0.2-0.1,0.3-0.1l1.5,0c0.2,0,0.3,0,0.4,0
			c0.1,0,0.3,0,0.5,0c0.2,0,0.4,0.1,0.6,0.1c0.2,0.1,0.4,0.1,0.5,0.2c0.1,0.1,0.3,0.2,0.3,0.3C34.7,74,34.7,74.1,34.7,74.2z
			 M33.7,74.3c0-0.2-0.1-0.3-0.2-0.4c-0.1-0.1-0.2-0.2-0.4-0.2c-0.2-0.1-0.3-0.1-0.5-0.1c-0.2,0-0.3,0-0.5,0l-0.9,0l0,1.6l0.9,0
			c0.3,0,0.5,0,0.7-0.1c0.2,0,0.4-0.1,0.5-0.2c0.1-0.1,0.2-0.2,0.3-0.3C33.7,74.5,33.7,74.4,33.7,74.3z"/>
		<path class="st6" d="M44.5,76.8c0,0,0,0.1,0,0.1c0,0,0,0,0,0.1c0,0,0,0-0.1,0c0,0-0.1,0-0.1,0l-3.2,0c-0.1,0-0.2,0-0.2,0
			c-0.1,0-0.1-0.1-0.1-0.2l0-3.6c0,0,0,0,0,0c0,0,0,0,0.1,0c0,0,0.1,0,0.2,0c0.1,0,0.1,0,0.2,0c0.1,0,0.2,0,0.2,0c0.1,0,0.1,0,0.1,0
			c0,0,0.1,0,0.1,0c0,0,0,0,0,0l0,3.4l2.6,0c0,0,0.1,0,0.1,0c0,0,0,0,0.1,0c0,0,0,0,0,0.1C44.5,76.7,44.5,76.7,44.5,76.8z"/>
		<path class="st6" d="M55.6,76.8c0,0,0,0.1,0,0.1c0,0,0,0,0,0.1c0,0-0.1,0-0.1,0c-0.1,0-0.2,0-0.3,0c-0.1,0-0.2,0-0.3,0
			c-0.1,0-0.1,0-0.2,0c0,0-0.1,0-0.1,0c0,0,0,0,0,0L54,76l-3,0l-0.6,0.9c0,0,0,0,0,0c0,0,0,0-0.1,0c0,0-0.1,0-0.2,0
			c-0.1,0-0.1,0-0.3,0c-0.1,0-0.2,0-0.3,0c-0.1,0-0.1,0-0.1,0c0,0,0,0,0-0.1c0,0,0-0.1,0-0.1l2.4-3.6c0,0,0,0,0.1-0.1
			c0,0,0.1,0,0.1,0c0,0,0.1,0,0.2,0c0.1,0,0.2,0,0.3,0c0.1,0,0.2,0,0.3,0c0.1,0,0.1,0,0.2,0c0,0,0.1,0,0.1,0c0,0,0,0,0.1,0.1
			L55.6,76.8z M52.4,73.6L52.4,73.6l-1.3,1.9l2.5,0L52.4,73.6z"/>
		<path class="st6" d="M66.2,76.5C66.2,76.5,66.2,76.5,66.2,76.5c0,0.1,0,0.1,0,0.1c0,0,0,0,0,0c0,0,0,0-0.1,0.1
			c0,0-0.1,0.1-0.2,0.1c-0.1,0-0.3,0.1-0.4,0.1C65.2,77,65,77,64.7,77c-0.2,0-0.5,0-0.8,0c-0.5,0-0.9,0-1.3-0.1
			c-0.4-0.1-0.7-0.2-1-0.4c-0.3-0.2-0.5-0.4-0.6-0.6c-0.1-0.2-0.2-0.5-0.2-0.8c0-0.3,0.1-0.6,0.2-0.9c0.2-0.3,0.4-0.5,0.7-0.6
			c0.3-0.2,0.6-0.3,1-0.4c0.4-0.1,0.8-0.1,1.3-0.1c0.2,0,0.4,0,0.6,0c0.2,0,0.4,0,0.5,0.1c0.2,0,0.3,0.1,0.4,0.1
			c0.1,0,0.2,0.1,0.3,0.1c0.1,0,0.1,0,0.1,0.1c0,0,0,0,0,0c0,0,0,0,0,0.1c0,0,0,0.1,0,0.1c0,0,0,0.1,0,0.1c0,0,0,0.1,0,0.1
			c0,0,0,0-0.1,0c0,0,0,0-0.1,0c-0.1,0-0.1,0-0.2-0.1c-0.1,0-0.2-0.1-0.4-0.1c-0.1,0-0.3-0.1-0.5-0.1c-0.2,0-0.5-0.1-0.8-0.1
			c-0.3,0-0.6,0-0.9,0.1c-0.3,0.1-0.5,0.2-0.7,0.3c-0.2,0.1-0.3,0.3-0.4,0.5c-0.1,0.2-0.2,0.4-0.2,0.7c0,0.2,0,0.5,0.1,0.7
			c0.1,0.2,0.2,0.3,0.4,0.5c0.2,0.1,0.4,0.2,0.7,0.3c0.3,0.1,0.6,0.1,0.9,0.1c0.3,0,0.5,0,0.8-0.1c0.2,0,0.4-0.1,0.6-0.1
			c0.2,0,0.3-0.1,0.4-0.1c0.1,0,0.2-0.1,0.2-0.1c0,0,0,0,0.1,0c0,0,0,0,0,0c0,0,0,0,0,0.1C66.1,76.4,66.2,76.4,66.2,76.5z"/>
		<path class="st6" d="M76,76.8C76,76.8,76,76.9,76,76.8c0,0.1,0,0.1-0.1,0.2c0,0,0,0-0.1,0c0,0-0.1,0-0.1,0l-3.5,0
			c-0.1,0-0.2,0-0.2,0c-0.1,0-0.1-0.1-0.1-0.2l0-3.5c0-0.1,0-0.1,0.1-0.2c0.1,0,0.2,0,0.2,0l3.4,0c0,0,0.1,0,0.1,0s0,0,0.1,0
			c0,0,0,0,0,0.1c0,0,0,0.1,0,0.1c0,0,0,0.1,0,0.1c0,0,0,0,0,0.1c0,0,0,0-0.1,0c0,0-0.1,0-0.1,0l-2.8,0l0,1.2l2.4,0c0,0,0.1,0,0.1,0
			c0,0,0,0,0.1,0c0,0,0,0,0,0.1c0,0,0,0.1,0,0.1c0,0,0,0.1,0,0.1c0,0,0,0,0,0.1c0,0,0,0-0.1,0c0,0-0.1,0-0.1,0l-2.4,0l0,1.4l2.9,0
			c0,0,0.1,0,0.1,0c0,0,0,0,0.1,0c0,0,0,0,0,0.1C76,76.7,76,76.8,76,76.8z"/>
		<path class="st6" d="M91.6,75.5l0,1.4c0,0,0,0,0,0c0,0,0,0-0.1,0c0,0-0.1,0-0.2,0c-0.1,0-0.1,0-0.2,0c-0.1,0-0.2,0-0.2,0
			c-0.1,0-0.1,0-0.2,0c0,0-0.1,0-0.1,0c0,0,0,0,0,0l0-1.4l-2-2.2c0,0-0.1-0.1-0.1-0.1c0,0,0,0,0-0.1c0,0,0.1,0,0.2,0
			c0.1,0,0.2,0,0.3,0c0.1,0,0.2,0,0.3,0c0.1,0,0.1,0,0.2,0c0,0,0.1,0,0.1,0c0,0,0,0,0.1,0l1,1.1c0.1,0.1,0.2,0.2,0.3,0.3
			c0.1,0.1,0.2,0.2,0.3,0.4l0,0c0.1-0.1,0.2-0.2,0.3-0.3c0.1-0.1,0.2-0.2,0.3-0.3l1-1.1c0,0,0,0,0-0.1c0,0,0,0,0.1,0
			c0,0,0.1,0,0.1,0c0.1,0,0.1,0,0.2,0c0.1,0,0.2,0,0.3,0c0.1,0,0.1,0,0.2,0c0,0,0,0,0,0.1c0,0,0,0.1-0.1,0.1L91.6,75.5z"/>
		<path class="st6" d="M105.5,75.1c0,0.3-0.1,0.6-0.2,0.8c-0.1,0.3-0.3,0.5-0.6,0.6c-0.3,0.2-0.6,0.3-1,0.4
			c-0.4,0.1-0.9,0.1-1.4,0.1c-0.5,0-1,0-1.4-0.1c-0.4-0.1-0.7-0.2-1-0.4c-0.3-0.2-0.5-0.4-0.6-0.6c-0.1-0.2-0.2-0.5-0.2-0.8
			c0-0.3,0.1-0.6,0.2-0.8c0.1-0.2,0.3-0.5,0.6-0.6c0.3-0.2,0.6-0.3,1-0.4c0.4-0.1,0.9-0.1,1.4-0.1c0.5,0,1,0,1.4,0.1
			c0.4,0.1,0.7,0.2,1,0.4c0.3,0.2,0.5,0.4,0.6,0.6C105.4,74.5,105.5,74.8,105.5,75.1z M104.5,75.1c0-0.2,0-0.4-0.1-0.6
			c-0.1-0.2-0.2-0.4-0.4-0.5c-0.2-0.1-0.4-0.2-0.7-0.3c-0.3-0.1-0.6-0.1-1-0.1c-0.4,0-0.8,0-1,0.1c-0.3,0.1-0.5,0.2-0.7,0.3
			c-0.2,0.1-0.3,0.3-0.4,0.5c-0.1,0.2-0.1,0.4-0.1,0.6c0,0.2,0,0.4,0.1,0.6c0.1,0.2,0.2,0.4,0.4,0.5c0.2,0.1,0.4,0.2,0.7,0.3
			c0.3,0.1,0.6,0.1,1.1,0.1c0.4,0,0.8,0,1.1-0.1c0.3-0.1,0.5-0.2,0.7-0.3c0.2-0.1,0.3-0.3,0.4-0.5C104.4,75.5,104.5,75.3,104.5,75.1
			z"/>
		<path class="st6" d="M117,75.6c0,0.2-0.1,0.4-0.2,0.6c-0.1,0.2-0.3,0.3-0.6,0.5c-0.2,0.1-0.5,0.2-0.9,0.3
			c-0.3,0.1-0.7,0.1-1.2,0.1c-0.4,0-0.8,0-1.1-0.1s-0.6-0.2-0.8-0.3c-0.2-0.1-0.4-0.3-0.5-0.5c-0.1-0.2-0.2-0.4-0.2-0.6l0-2.4
			c0,0,0,0,0,0s0,0,0.1,0c0,0,0.1,0,0.1,0c0.1,0,0.1,0,0.2,0c0.1,0,0.2,0,0.2,0c0.1,0,0.1,0,0.1,0c0,0,0.1,0,0.1,0c0,0,0,0,0,0
			l0,2.3c0,0.2,0,0.3,0.1,0.5c0.1,0.1,0.2,0.2,0.4,0.3c0.2,0.1,0.3,0.2,0.6,0.2c0.2,0,0.5,0.1,0.7,0.1c0.3,0,0.5,0,0.7-0.1
			c0.2,0,0.4-0.1,0.6-0.2c0.2-0.1,0.3-0.2,0.3-0.3c0.1-0.1,0.1-0.3,0.1-0.5l0-2.4c0,0,0,0,0,0c0,0,0,0,0.1,0c0,0,0.1,0,0.1,0
			c0.1,0,0.1,0,0.2,0c0.1,0,0.2,0,0.2,0c0.1,0,0.1,0,0.1,0s0.1,0,0.1,0c0,0,0,0,0,0L117,75.6z"/>
		<path class="st6" d="M128.3,77C128.3,77,128.3,77,128.3,77C128.3,77.1,128.3,77.1,128.3,77c-0.1,0.1-0.2,0.1-0.2,0.1
			c-0.1,0-0.2,0-0.3,0c-0.1,0-0.2,0-0.2,0c-0.1,0-0.1,0-0.1,0c0,0-0.1,0-0.1,0c0,0,0,0-0.1-0.1l-0.7-0.9c-0.1-0.1-0.2-0.2-0.2-0.3
			c-0.1-0.1-0.2-0.2-0.3-0.2c-0.1-0.1-0.3-0.1-0.4-0.1c-0.2,0-0.3-0.1-0.6-0.1l-0.6,0l0,1.7c0,0,0,0,0,0c0,0,0,0-0.1,0
			c0,0-0.1,0-0.1,0c-0.1,0-0.1,0-0.2,0c-0.1,0-0.2,0-0.2,0c-0.1,0-0.1,0-0.1,0c0,0-0.1,0-0.1,0c0,0,0,0,0,0l0-3.6
			c0-0.1,0-0.1,0.1-0.2c0.1,0,0.2,0,0.2,0l1.5,0c0.2,0,0.3,0,0.5,0c0.1,0,0.2,0,0.3,0c0.3,0,0.5,0.1,0.7,0.1
			c0.2,0.1,0.4,0.1,0.5,0.2c0.1,0.1,0.3,0.2,0.3,0.3c0.1,0.1,0.1,0.2,0.1,0.4c0,0.1,0,0.2-0.1,0.3c-0.1,0.1-0.2,0.2-0.3,0.3
			c-0.1,0.1-0.3,0.1-0.4,0.2c-0.2,0.1-0.4,0.1-0.6,0.1c0.1,0,0.2,0.1,0.3,0.1c0.1,0,0.2,0.1,0.3,0.2c0.1,0.1,0.2,0.1,0.2,0.2
			c0.1,0.1,0.1,0.2,0.2,0.3l0.6,0.9C128.2,76.9,128.3,76.9,128.3,77C128.3,77,128.3,77,128.3,77z M126.9,74.3c0-0.2-0.1-0.3-0.2-0.4
			c-0.1-0.1-0.3-0.2-0.6-0.2c-0.1,0-0.2,0-0.3,0c-0.1,0-0.3,0-0.5,0l-0.8,0l0,1.3l0.9,0c0.3,0,0.5,0,0.7,0c0.2,0,0.3-0.1,0.5-0.1
			c0.1-0.1,0.2-0.1,0.3-0.2C126.8,74.5,126.9,74.4,126.9,74.3z"/>
		<path class="st6" d="M146,73.5C146,73.5,146,73.5,146,73.5c0,0.1,0,0.1,0,0.2c0,0,0,0-0.1,0c0,0-0.1,0-0.1,0l-2,0l0,3.4
			c0,0,0,0,0,0c0,0,0,0-0.1,0c0,0-0.1,0-0.1,0c-0.1,0-0.1,0-0.2,0c-0.1,0-0.2,0-0.2,0c-0.1,0-0.1,0-0.2,0c0,0-0.1,0-0.1,0
			c0,0,0,0,0,0l0-3.4l-2,0c0,0-0.1,0-0.1,0c0,0,0,0-0.1,0s0,0,0-0.1c0,0,0-0.1,0-0.1c0,0,0-0.1,0-0.1c0,0,0-0.1,0-0.1c0,0,0,0,0.1,0
			c0,0,0.1,0,0.1,0l5,0c0,0,0.1,0,0.1,0c0,0,0,0,0.1,0c0,0,0,0,0,0.1C146,73.4,146,73.4,146,73.5z"/>
		<path class="st6" d="M155.6,76.9C155.6,76.9,155.6,77,155.6,76.9c0,0.1,0,0.1-0.1,0.2c0,0,0,0-0.1,0c0,0-0.1,0-0.1,0l-3.5,0
			c-0.1,0-0.2,0-0.2,0c-0.1,0-0.1-0.1-0.1-0.2l0-3.5c0-0.1,0-0.1,0.1-0.2c0.1,0,0.2,0,0.2,0l3.4,0c0,0,0.1,0,0.1,0c0,0,0,0,0.1,0
			c0,0,0,0,0,0.1c0,0,0,0.1,0,0.1c0,0,0,0.1,0,0.1c0,0,0,0,0,0.1c0,0,0,0-0.1,0c0,0-0.1,0-0.1,0l-2.8,0l0,1.2l2.4,0c0,0,0.1,0,0.1,0
			c0,0,0,0,0.1,0c0,0,0,0,0,0.1c0,0,0,0.1,0,0.1c0,0,0,0.1,0,0.1c0,0,0,0,0,0.1c0,0,0,0-0.1,0c0,0-0.1,0-0.1,0l-2.4,0l0,1.4l2.9,0
			c0,0,0.1,0,0.1,0c0,0,0,0,0.1,0c0,0,0,0,0,0.1C155.6,76.8,155.6,76.9,155.6,76.9z"/>
		<path class="st6" d="M166.3,77c0,0,0.1,0.1,0.1,0.1c0,0,0,0,0,0.1c0,0-0.1,0-0.2,0c-0.1,0-0.2,0-0.3,0c-0.1,0-0.2,0-0.3,0
			c-0.1,0-0.1,0-0.2,0c0,0-0.1,0-0.1,0s0,0-0.1,0l-1.6-1.5l-1.6,1.5c0,0,0,0-0.1,0c0,0-0.1,0-0.1,0c0,0-0.1,0-0.2,0
			c-0.1,0-0.2,0-0.3,0c-0.1,0-0.2,0-0.3,0c-0.1,0-0.1,0-0.1,0c0,0,0,0,0-0.1c0,0,0-0.1,0.1-0.1l2-1.8l-1.9-1.7c0,0-0.1-0.1-0.1-0.1
			c0,0,0,0,0-0.1c0,0,0.1,0,0.2,0c0.1,0,0.2,0,0.3,0c0.1,0,0.2,0,0.3,0c0.1,0,0.1,0,0.2,0c0,0,0.1,0,0.1,0c0,0,0,0,0.1,0l1.5,1.5
			l1.5-1.4c0,0,0,0,0.1,0c0,0,0,0,0.1,0c0,0,0.1,0,0.1,0c0.1,0,0.1,0,0.3,0c0.1,0,0.2,0,0.3,0c0.1,0,0.1,0,0.2,0c0,0,0,0,0,0.1
			c0,0,0,0.1-0.1,0.1l-1.9,1.7L166.3,77z"/>
		<path class="st6" d="M176.8,73.5C176.8,73.5,176.8,73.6,176.8,73.5c0,0.1,0,0.1,0,0.2c0,0,0,0-0.1,0c0,0-0.1,0-0.1,0l-2,0l0,3.4
			c0,0,0,0,0,0c0,0,0,0-0.1,0c0,0-0.1,0-0.1,0c-0.1,0-0.1,0-0.2,0c-0.1,0-0.2,0-0.2,0c-0.1,0-0.1,0-0.2,0c0,0-0.1,0-0.1,0
			c0,0,0,0,0,0l0-3.4l-2,0c0,0-0.1,0-0.1,0c0,0,0,0-0.1,0s0,0,0-0.1c0,0,0-0.1,0-0.1c0,0,0-0.1,0-0.1c0,0,0-0.1,0-0.1c0,0,0,0,0.1,0
			c0,0,0.1,0,0.1,0l5,0c0,0,0.1,0,0.1,0c0,0,0,0,0.1,0c0,0,0,0,0,0.1C176.8,73.4,176.8,73.5,176.8,73.5z"/>
		<path class="st6" d="M194.7,77.1C194.7,77.1,194.7,77.1,194.7,77.1c0,0.1-0.1,0.1-0.1,0.1c0,0-0.1,0-0.1,0c-0.1,0-0.1,0-0.2,0
			c-0.1,0-0.2,0-0.2,0c-0.1,0-0.1,0-0.1,0c0,0-0.1,0-0.1,0c0,0,0,0,0,0l0-1.7l-3.3,0l0,1.7c0,0,0,0,0,0c0,0,0,0-0.1,0
			c0,0-0.1,0-0.1,0c-0.1,0-0.1,0-0.2,0c-0.1,0-0.2,0-0.2,0c-0.1,0-0.1,0-0.2,0c0,0-0.1,0-0.1,0s0,0,0,0l0-3.7c0,0,0,0,0,0s0,0,0.1,0
			c0,0,0.1,0,0.2,0c0.1,0,0.1,0,0.2,0c0.1,0,0.2,0,0.2,0c0.1,0,0.1,0,0.1,0c0,0,0.1,0,0.1,0c0,0,0,0,0,0l0,1.6l3.3,0l0-1.6
			c0,0,0,0,0,0c0,0,0,0,0.1,0c0,0,0.1,0,0.1,0c0.1,0,0.1,0,0.2,0c0.1,0,0.2,0,0.2,0c0.1,0,0.1,0,0.1,0c0,0,0.1,0,0.1,0c0,0,0,0,0,0
			L194.7,77.1z"/>
		<path class="st6" d="M205.2,77C205.2,77,205.2,77,205.2,77c0,0.1,0,0.1-0.1,0.2c0,0,0,0-0.1,0c0,0-0.1,0-0.1,0l-3.5,0
			c-0.1,0-0.2,0-0.2,0c-0.1,0-0.1-0.1-0.1-0.2l0-3.5c0-0.1,0-0.1,0.1-0.2c0.1,0,0.2,0,0.2,0l3.4,0c0,0,0.1,0,0.1,0c0,0,0,0,0.1,0
			c0,0,0,0,0,0.1c0,0,0,0.1,0,0.1c0,0,0,0.1,0,0.1c0,0,0,0,0,0.1c0,0,0,0-0.1,0c0,0-0.1,0-0.1,0l-2.8,0l0,1.2l2.4,0c0,0,0.1,0,0.1,0
			c0,0,0,0,0.1,0c0,0,0,0,0,0.1c0,0,0,0.1,0,0.1c0,0,0,0.1,0,0.1c0,0,0,0,0,0.1c0,0,0,0-0.1,0c0,0-0.1,0-0.1,0l-2.4,0l0,1.4l2.9,0
			c0,0,0.1,0,0.1,0c0,0,0,0,0.1,0c0,0,0,0,0,0.1C205.2,76.9,205.2,76.9,205.2,77z"/>
		<path class="st6" d="M216.2,77.1C216.2,77.1,216.2,77.2,216.2,77.1C216.2,77.2,216.1,77.2,216.2,77.1c-0.1,0.1-0.2,0.1-0.2,0.1
			c-0.1,0-0.2,0-0.3,0c-0.1,0-0.2,0-0.2,0c-0.1,0-0.1,0-0.1,0c0,0-0.1,0-0.1,0c0,0,0,0-0.1-0.1l-0.7-0.9c-0.1-0.1-0.2-0.2-0.2-0.3
			c-0.1-0.1-0.2-0.2-0.3-0.2c-0.1-0.1-0.3-0.1-0.4-0.1c-0.2,0-0.3-0.1-0.6-0.1l-0.6,0l0,1.7c0,0,0,0,0,0c0,0,0,0-0.1,0
			c0,0-0.1,0-0.1,0c-0.1,0-0.1,0-0.2,0c-0.1,0-0.2,0-0.2,0c-0.1,0-0.1,0-0.1,0c0,0-0.1,0-0.1,0s0,0,0,0l0-3.6c0-0.1,0-0.1,0.1-0.2
			c0.1,0,0.2,0,0.2,0l1.5,0c0.2,0,0.3,0,0.5,0c0.1,0,0.2,0,0.3,0c0.3,0,0.5,0.1,0.7,0.1c0.2,0.1,0.4,0.1,0.5,0.2
			c0.1,0.1,0.3,0.2,0.3,0.3c0.1,0.1,0.1,0.2,0.1,0.4c0,0.1,0,0.2-0.1,0.3c-0.1,0.1-0.2,0.2-0.3,0.3c-0.1,0.1-0.3,0.1-0.4,0.2
			c-0.2,0.1-0.4,0.1-0.6,0.1c0.1,0,0.2,0.1,0.3,0.1c0.1,0,0.2,0.1,0.3,0.2c0.1,0.1,0.2,0.1,0.2,0.2c0.1,0.1,0.1,0.2,0.2,0.3l0.6,0.9
			C216.1,77,216.2,77,216.2,77.1C216.2,77.1,216.2,77.1,216.2,77.1z M214.8,74.4c0-0.2-0.1-0.3-0.2-0.4c-0.1-0.1-0.3-0.2-0.6-0.2
			c-0.1,0-0.2,0-0.3,0c-0.1,0-0.3,0-0.5,0l-0.8,0l0,1.3l0.9,0c0.3,0,0.5,0,0.7,0c0.2,0,0.3-0.1,0.5-0.1c0.1-0.1,0.2-0.1,0.3-0.2
			C214.7,74.6,214.8,74.5,214.8,74.4z"/>
		<path class="st6" d="M226.2,77C226.2,77,226.2,77.1,226.2,77c0,0.1,0,0.1-0.1,0.2c0,0,0,0-0.1,0c0,0-0.1,0-0.1,0l-3.5,0
			c-0.1,0-0.2,0-0.2,0c-0.1,0-0.1-0.1-0.1-0.2l0-3.5c0-0.1,0-0.1,0.1-0.2c0.1,0,0.2,0,0.2,0l3.4,0c0,0,0.1,0,0.1,0c0,0,0,0,0.1,0
			c0,0,0,0,0,0.1c0,0,0,0.1,0,0.1c0,0,0,0.1,0,0.1c0,0,0,0,0,0.1c0,0,0,0-0.1,0c0,0-0.1,0-0.1,0l-2.8,0l0,1.2l2.4,0c0,0,0.1,0,0.1,0
			c0,0,0,0,0.1,0c0,0,0,0,0,0.1s0,0.1,0,0.1c0,0,0,0.1,0,0.1c0,0,0,0,0,0.1c0,0,0,0-0.1,0c0,0-0.1,0-0.1,0l-2.4,0l0,1.4l2.9,0
			c0,0,0.1,0,0.1,0c0,0,0,0,0.1,0c0,0,0,0,0,0.1C226.2,76.9,226.2,77,226.2,77z"/>
	</g>
</g>
</svg>
